<?xml version="1.0" encoding="UTF-8"?>
<svg xmlns="http://www.w3.org/2000/svg" xmlns:xlink="http://www.w3.org/1999/xlink" viewBox="0 0 808.74 838">
  <defs>
    <style>
      .cls-1 {
        fill: #fff;
      }

      .cls-2 {
        isolation: isolate;
      }

      .cls-3 {
        clip-path: url(#clippath-1);
      }

      .cls-4 {
        clip-path: url(#clippath);
      }

      .cls-5 {
        fill: none;
      }

      .cls-6 {
        fill: url(#linear-gradient);
      }

      .cls-7 {
        mix-blend-mode: color-dodge;
        opacity: .28;
      }
    </style>
    <linearGradient id="linear-gradient" x1="171.61" y1="787.39" x2="551.48" y2="-107.54" gradientUnits="userSpaceOnUse">
      <stop offset="0" stop-color="#ff1d25"/>
      <stop offset=".07" stop-color="#eb1a22"/>
      <stop offset=".2" stop-color="#b9151a"/>
      <stop offset=".39" stop-color="#690c0f"/>
      <stop offset=".61" stop-color="#000"/>
    </linearGradient>
    <clipPath id="clippath">
      <path class="cls-5" d="m290.84,838c30-23,66-47,130-39s128,13,145-13,27-50.55,0-95.28,0-108.72,78-129.72c77-21,104-32,141-36S804.84,0,804.84,0H.41S-.51,52.27.41,86.38s37.05,132.42,142.93,175.12c90.5,36.5,108,113,68,152s-71.5,103.5-28,145c45.5,47.5,80.54,40.61,123,58,63.12,25.85,116.5,30.5,98.03,89.16-16.03,30.84-71.03,27.84-103.03,60.84s-24,58-24,58l13.5,13.5Z"/>
    </clipPath>
    <clipPath id="clippath-1">
      <rect class="cls-5" x="18.84" y="24" width="1144" height="843" transform="translate(1181.67 891) rotate(180)"/>
    </clipPath>
  </defs>
  <g class="cls-2">
    <g id="Layer_2" data-name="Layer 2">
      <g id="Layer_6" data-name="Layer 6">
        <path class="cls-6" d="m290.84,838c30-23,66-47,130-39s128,13,145-13,27-50.55,0-95.28,0-108.72,78-129.72c77-21,104-32,141-36S804.84,0,804.84,0H.41S-.51,52.27.41,86.38s37.05,132.42,142.93,175.12c90.5,36.5,108,113,68,152s-71.5,103.5-28,145c45.5,47.5,80.54,40.61,123,58,63.12,25.85,116.5,30.5,98.03,89.16-16.03,30.84-71.03,27.84-103.03,60.84s-24,58-24,58l13.5,13.5Z"/>
        <g class="cls-4">
          <g class="cls-3">
            <g>
              <g>
                <path class="cls-1" d="m727.33,52.53c-.42,1.01.47,2,1.39,1.53.19-.1.35-.27.44-.49.42-1.01-.47-2-1.39-1.53-.19.1-.35.28-.44.49Z"/>
                <path class="cls-1" d="m708.96,152.05c-.42,1.01.47,2,1.39,1.53.19-.1.35-.28.44-.49.42-1.01-.47-2-1.39-1.53-.19.1-.35.28-.44.49Z"/>
                <path class="cls-1" d="m801.87,199.27c-.42,1.01.47,2,1.39,1.53.19-.1.35-.28.44-.49.42-1.01-.47-2-1.39-1.53-.19.1-.35.27-.44.49Z"/>
                <path class="cls-1" d="m528.82,119.04c-.42,1.01.47,2,1.39,1.53.19-.1.35-.28.44-.49.42-1.01-.47-2-1.39-1.53-.19.1-.35.28-.44.49Z"/>
                <path class="cls-1" d="m352.41,104.93c-.42,1.01.47,2,1.39,1.53.19-.1.35-.28.44-.49.42-1.01-.47-2-1.39-1.53-.19.1-.35.28-.44.49Z"/>
                <path class="cls-1" d="m245.44,139.78c-.42,1.01.47,2,1.39,1.53.19-.1.35-.28.44-.49.42-1.01-.47-2-1.39-1.53-.19.1-.35.28-.44.49Z"/>
                <path class="cls-1" d="m248.38,192.54c-.42,1.02.47,2,1.39,1.53.19-.1.35-.28.44-.49.42-1.01-.47-2-1.39-1.53-.19.1-.35.27-.44.49Z"/>
                <path class="cls-1" d="m216.49,190.12c-.42,1.02.47,2,1.39,1.53.19-.1.35-.28.44-.49.42-1.01-.47-2-1.39-1.53-.19.1-.35.27-.44.49Z"/>
                <path class="cls-1" d="m216.49,175.82c-.42,1.01.47,2,1.39,1.53.19-.1.35-.28.44-.49.42-1.01-.47-2-1.39-1.53-.19.1-.35.28-.44.49Z"/>
                <path class="cls-1" d="m199.14,96.42c-.42,1.01.47,2,1.39,1.53.19-.1.35-.28.44-.49.42-1.01-.47-2-1.39-1.53-.19.1-.35.28-.44.49Z"/>
                <path class="cls-1" d="m159.2,81.15c-.42,1.01.47,2,1.39,1.53.19-.1.35-.28.44-.49.42-1.01-.47-2-1.39-1.53-.19.1-.35.27-.44.49Z"/>
                <path class="cls-1" d="m68.98,136.68c-.42,1.01.47,2,1.39,1.53.19-.1.35-.28.44-.49.42-1.01-.47-2-1.39-1.53-.19.1-.35.28-.44.49Z"/>
                <path class="cls-1" d="m48.14,224.93c-.42,1.01.47,2,1.39,1.53.19-.1.35-.28.44-.49.42-1.01-.47-2-1.39-1.53-.19.1-.35.27-.44.49Z"/>
                <path class="cls-1" d="m69.43,300.21c-.42,1.01.47,2,1.39,1.53.19-.1.35-.28.44-.49.42-1.01-.47-2-1.39-1.53-.19.1-.35.28-.44.49Z"/>
                <path class="cls-1" d="m154.94,333.27c-.42,1.01.47,2,1.39,1.53.19-.1.35-.28.44-.49.42-1.01-.47-2-1.39-1.53-.19.1-.35.28-.44.49Z"/>
                <path class="cls-1" d="m162.6,360.08c-.42,1.01.47,2,1.39,1.53.19-.1.35-.28.44-.49.42-1.01-.47-2-1.39-1.53-.19.1-.35.28-.44.49Z"/>
                <path class="cls-1" d="m59.5,432.79c-.42,1.01.47,2,1.39,1.53.19-.1.35-.28.44-.49.42-1.01-.47-2-1.39-1.53-.19.1-.35.28-.44.49Z"/>
                <path class="cls-1" d="m44.7,439.95c-.42,1.01.47,2,1.39,1.53.19-.1.35-.28.44-.49.42-1.01-.47-2-1.39-1.53-.19.1-.35.28-.44.49Z"/>
                <path class="cls-1" d="m192.22,338.27c-.42,1.01.47,2,1.39,1.53.19-.1.35-.28.44-.49.42-1.01-.47-2-1.39-1.53-.19.1-.35.28-.44.49Z"/>
                <path class="cls-1" d="m170.35,397.32c-.42,1.01.47,2,1.39,1.53.19-.1.35-.28.44-.49.42-1.01-.47-2-1.39-1.53-.19.1-.35.28-.44.49Z"/>
                <path class="cls-1" d="m159.13,419.87c-.42,1.01.47,2,1.39,1.53.19-.1.35-.28.44-.49.42-1.01-.47-2-1.39-1.53-.19.1-.35.28-.44.49Z"/>
                <path class="cls-1" d="m120.18,460.88c-.42,1.01.47,2,1.39,1.53.19-.1.35-.28.44-.49.42-1.01-.47-2-1.39-1.53-.19.1-.35.27-.44.49Z"/>
                <path class="cls-1" d="m108.69,463.56c-.42,1.01.47,2,1.39,1.53.19-.1.35-.27.44-.49.42-1.01-.47-2-1.39-1.53-.19.1-.35.28-.44.49Z"/>
                <path class="cls-1" d="m84.52,440.45c-.42,1.01.47,2,1.39,1.53.19-.1.35-.28.44-.49.42-1.01-.47-2-1.39-1.53-.19.1-.35.27-.44.49Z"/>
                <path class="cls-1" d="m38.62,382.9c-.42,1.01.47,2,1.39,1.53.19-.1.35-.27.44-.49.42-1.01-.47-2-1.39-1.53-.19.1-.35.28-.44.49Z"/>
                <path class="cls-1" d="m23.36,349.99c-.42,1.01.47,2,1.39,1.53.19-.1.35-.28.44-.49.42-1.01-.47-2-1.39-1.53-.19.1-.35.28-.44.49Z"/>
                <path class="cls-1" d="m79.72,474.07c-.42,1.01.47,2,1.39,1.53.19-.1.35-.28.44-.49.42-1.01-.47-2-1.39-1.53-.19.1-.35.28-.44.49Z"/>
                <path class="cls-1" d="m92.68,505.91c-.42,1.01.47,2,1.39,1.53.19-.1.35-.28.44-.49.42-1.01-.47-2-1.39-1.53-.19.1-.35.28-.44.49Z"/>
                <path class="cls-1" d="m123.27,540.71c-.42,1.01.47,2,1.39,1.53.19-.1.35-.28.44-.49.42-1.01-.47-2-1.39-1.53-.19.1-.35.28-.44.49Z"/>
                <path class="cls-1" d="m76.71,574.63c-.42,1.01.47,2,1.39,1.53.19-.1.35-.28.44-.49.42-1.01-.47-2-1.39-1.53-.19.1-.35.28-.44.49Z"/>
                <path class="cls-1" d="m42.1,535.4c-.42,1.01.47,2,1.39,1.53.19-.1.35-.28.44-.49.42-1.01-.47-2-1.39-1.53-.19.1-.35.28-.44.49Z"/>
                <path class="cls-1" d="m45.15,417.75c-.42,1.01.47,2,1.39,1.53.19-.1.35-.28.44-.49.42-1.01-.47-2-1.39-1.53-.19.1-.35.28-.44.49Z"/>
                <path class="cls-1" d="m31.19,329.32c-.42,1.01.47,2,1.39,1.53.19-.1.35-.27.44-.49.42-1.01-.47-2-1.39-1.53-.19.1-.35.28-.44.49Z"/>
                <path class="cls-1" d="m18.56,238.81c-.42,1.01.47,2,1.39,1.53.19-.1.35-.28.44-.49.42-1.01-.47-2-1.39-1.53-.19.1-.35.27-.44.49Z"/>
                <path class="cls-1" d="m8.68,160.13c-.42,1.01.47,2,1.39,1.53.19-.1.35-.28.44-.49.42-1.01-.47-2-1.39-1.53-.19.1-.35.28-.44.49Z"/>
                <path class="cls-1" d="m60.45,85.64c-.42,1.01.47,2,1.39,1.53.19-.1.35-.27.44-.49.42-1.01-.47-2-1.39-1.53-.19.1-.35.28-.44.49Z"/>
                <path class="cls-1" d="m275.5,94.33c-.42,1.01.47,2,1.39,1.53.19-.1.35-.28.44-.49.42-1.01-.47-2-1.39-1.53-.19.1-.35.28-.44.49Z"/>
                <path class="cls-1" d="m348.57,130.35c-.42,1.01.47,2,1.39,1.53.19-.1.35-.28.44-.49.42-1.01-.47-2-1.39-1.53-.19.1-.35.28-.44.49Z"/>
                <path class="cls-1" d="m473.56,97.9c-.42,1.01.47,2,1.39,1.53.19-.1.35-.27.44-.49.42-1.01-.47-2-1.39-1.53-.19.1-.35.28-.44.49Z"/>
                <path class="cls-1" d="m560.2,77.17c-.42,1.01.47,2,1.39,1.53.19-.1.35-.27.44-.49.42-1.01-.47-2-1.39-1.53-.19.1-.35.28-.44.49Z"/>
                <path class="cls-1" d="m603.67,75.68c-.42,1.01.47,2,1.39,1.53.19-.1.35-.28.44-.49.42-1.01-.47-2-1.39-1.53-.19.1-.35.28-.44.49Z"/>
                <path class="cls-1" d="m673.15,115.17c-.42,1.02.47,2,1.39,1.53.19-.1.35-.28.44-.49.42-1.01-.47-2-1.39-1.53-.19.1-.35.28-.44.49Z"/>
                <path class="cls-1" d="m622.82,184.76c-.42,1.02.47,2,1.39,1.53.19-.1.35-.28.44-.49.42-1.01-.47-2-1.39-1.53-.19.1-.35.27-.44.49Z"/>
                <path class="cls-1" d="m630.43,193.13c-.42,1.01.47,2,1.39,1.53.19-.1.35-.28.44-.49.42-1.01-.47-2-1.39-1.53-.19.1-.35.28-.44.49Z"/>
                <path class="cls-1" d="m773.86,187c-.42,1.01.47,2,1.39,1.53.19-.1.35-.28.44-.49.42-1.01-.47-2-1.39-1.53-.19.1-.35.28-.44.49Z"/>
                <path class="cls-1" d="m808.06,205.05c-.42,1.01.47,2,1.39,1.53.19-.1.35-.27.44-.49.42-1.01-.47-2-1.39-1.53-.19.1-.35.28-.44.49Z"/>
                <path class="cls-1" d="m736.26,350.28c-.42,1.02.47,2,1.39,1.53.19-.1.35-.28.44-.49.42-1.01-.47-2-1.39-1.53-.19.1-.35.27-.44.49Z"/>
                <path class="cls-1" d="m635.29,356.99c-.42,1.01.47,2,1.39,1.53.19-.1.35-.28.44-.49.42-1.01-.47-2-1.39-1.53-.19.1-.35.28-.44.49Z"/>
                <path class="cls-1" d="m524.51,363.44c-.42,1.01.47,2,1.39,1.53.19-.1.35-.28.44-.49.42-1.01-.47-2-1.39-1.53-.19.1-.35.28-.44.49Z"/>
                <path class="cls-1" d="m414.19,351.72c-.42,1.01.47,2,1.39,1.53.19-.1.35-.28.44-.49.42-1.01-.47-2-1.39-1.53-.19.1-.35.27-.44.49Z"/>
                <path class="cls-1" d="m376.2,391.14c-.42,1.01.47,2,1.39,1.53.19-.1.35-.28.44-.49.42-1.01-.47-2-1.39-1.53-.19.1-.35.28-.44.49Z"/>
                <path class="cls-1" d="m343.2,471.37c-.42,1.01.47,2,1.39,1.53.19-.1.35-.28.44-.49.42-1.01-.47-2-1.39-1.53-.19.1-.35.28-.44.49Z"/>
                <path class="cls-1" d="m348.57,496.42c-.42,1.01.47,2,1.39,1.53.19-.1.35-.27.44-.49.42-1.01-.47-2-1.39-1.53-.19.1-.35.28-.44.49Z"/>
                <path class="cls-1" d="m660.98,510.42c-.42,1.01.47,2,1.39,1.53.19-.1.35-.28.44-.49.42-1.01-.47-2-1.39-1.53-.19.1-.35.28-.44.49Z"/>
                <path class="cls-1" d="m756.99,513.75c-.42,1.01.47,2,1.39,1.53.19-.1.35-.28.44-.49.42-1.01-.47-2-1.39-1.53-.19.1-.35.28-.44.49Z"/>
                <path class="cls-1" d="m802.61,516.51c-.42,1.01.47,2,1.39,1.53.19-.1.35-.28.44-.49.42-1.01-.47-2-1.39-1.53-.19.1-.35.28-.44.49Z"/>
                <path class="cls-1" d="m800.04,483.4c-.42,1.01.47,2,1.39,1.53.19-.1.35-.28.44-.49.42-1.01-.47-2-1.39-1.53-.19.1-.35.28-.44.49Z"/>
                <path class="cls-1" d="m745.84,505.08c-.42,1.01.47,2,1.39,1.53.19-.1.35-.27.44-.49.42-1.01-.47-2-1.39-1.53-.19.1-.35.28-.44.49Z"/>
                <path class="cls-1" d="m731.93,575.45c-.42,1.01.47,2,1.39,1.53.19-.1.35-.28.44-.49.42-1.01-.47-2-1.39-1.53-.19.1-.35.27-.44.49Z"/>
                <path class="cls-1" d="m692.67,614.59c-.42,1.01.47,2,1.39,1.53.19-.1.35-.28.44-.49.42-1.01-.47-2-1.39-1.53-.19.1-.35.28-.44.49Z"/>
                <path class="cls-1" d="m607.07,640.74c-.42,1.01.47,2,1.39,1.53.19-.1.35-.28.44-.49.42-1.01-.47-2-1.39-1.53-.19.1-.35.28-.44.49Z"/>
                <path class="cls-1" d="m574.61,658.59c-.42,1.01.47,2,1.39,1.53.19-.1.35-.28.44-.49.42-1.01-.47-2-1.39-1.53-.19.1-.35.28-.44.49Z"/>
                <path class="cls-1" d="m511.63,599.03c-.42,1.01.47,2,1.39,1.53.19-.1.35-.28.44-.49.42-1.01-.47-2-1.39-1.53-.19.1-.35.28-.44.49Z"/>
                <path class="cls-1" d="m525.36,556.23c-.42,1.02.47,2,1.39,1.53.19-.1.35-.28.44-.49.42-1.01-.47-2-1.39-1.53-.19.1-.35.28-.44.49Z"/>
                <path class="cls-1" d="m519.44,522.78c-.42,1.01.47,2,1.39,1.53.19-.1.35-.28.44-.49.42-1.01-.47-2-1.39-1.53-.19.1-.35.28-.44.49Z"/>
                <path class="cls-1" d="m508.55,468.83c-.42,1.01.47,2,1.39,1.53.19-.1.35-.28.44-.49.42-1.01-.47-2-1.39-1.53-.19.1-.35.28-.44.49Z"/>
                <path class="cls-1" d="m684.33,461.29c-.42,1.01.47,2,1.39,1.53.19-.1.35-.27.44-.49.42-1.01-.47-2-1.39-1.53-.19.1-.35.28-.44.49Z"/>
                <path class="cls-1" d="m631.1,605.37c-.42,1.01.47,2,1.39,1.53.19-.1.35-.28.44-.49.42-1.01-.47-2-1.39-1.53-.19.1-.35.28-.44.49Z"/>
                <path class="cls-1" d="m668.04,799.6c-.42,1.01.47,2,1.39,1.53.19-.1.35-.27.44-.49.42-1.01-.47-2-1.39-1.53-.19.1-.35.28-.44.49Z"/>
                <path class="cls-1" d="m599.51,728.43c-.42,1.01.47,2,1.39,1.53.19-.1.35-.28.44-.49.42-1.01-.47-2-1.39-1.53-.19.1-.35.28-.44.49Z"/>
                <path class="cls-1" d="m721.3,799.76c-.42,1.02.47,2,1.39,1.53.19-.1.35-.28.44-.49.42-1.01-.47-2-1.39-1.53-.19.1-.35.27-.44.49Z"/>
                <path class="cls-1" d="m676.34,676.86c-.42,1.01.47,2,1.39,1.53.19-.1.35-.28.44-.49.42-1.01-.47-2-1.39-1.53-.19.1-.35.27-.44.49Z"/>
                <path class="cls-1" d="m575.64,767.68c-.42,1.02.47,2,1.39,1.53.19-.1.35-.28.44-.49.42-1.01-.47-2-1.39-1.53-.19.1-.35.27-.44.49Z"/>
                <path class="cls-1" d="m698.08,698.33c-.42,1.01.47,2,1.39,1.53.19-.1.35-.28.44-.49.42-1.01-.47-2-1.39-1.53-.19.1-.35.28-.44.49Z"/>
                <path class="cls-1" d="m350.37,757.5c-.42,1.01.47,2,1.39,1.53.19-.1.35-.28.44-.49.42-1.01-.47-2-1.39-1.53-.19.1-.35.28-.44.49Z"/>
                <path class="cls-1" d="m471.8,758.28c-.42,1.01.47,2,1.39,1.53.19-.1.35-.28.44-.49.42-1.01-.47-2-1.39-1.53-.19.1-.35.28-.44.49Z"/>
                <path class="cls-1" d="m235.71,805.85c-.42,1.01.47,2,1.39,1.53.19-.1.35-.27.44-.49.42-1.01-.47-2-1.39-1.53-.19.1-.35.28-.44.49Z"/>
                <path class="cls-1" d="m297.68,664.3c-.42,1.01.47,2,1.39,1.53.19-.1.35-.28.44-.49.42-1.01-.47-2-1.39-1.53-.19.1-.35.28-.44.49Z"/>
                <path class="cls-1" d="m270.2,501.46c-.42,1.01.47,2,1.39,1.53.19-.1.35-.28.44-.49.42-1.01-.47-2-1.39-1.53-.19.1-.35.28-.44.49Z"/>
                <path class="cls-1" d="m95.94,657.3c-.42,1.01.47,2,1.39,1.53.19-.1.35-.28.44-.49.42-1.01-.47-2-1.39-1.53-.19.1-.35.28-.44.49Z"/>
                <path class="cls-1" d="m67.33,789.44c-.42,1.01.47,2,1.39,1.53.19-.1.35-.28.44-.49.42-1.01-.47-2-1.39-1.53-.19.1-.35.28-.44.49Z"/>
                <path class="cls-1" d="m35.37,827.15c-.42,1.01.47,2,1.39,1.53.19-.1.35-.27.44-.49.42-1.02-.47-2-1.39-1.53-.19.1-.35.28-.44.49Z"/>
                <path class="cls-1" d="m12.44,654.85c-.42,1.01.47,2,1.39,1.53.19-.1.35-.28.44-.49.42-1.01-.47-2-1.39-1.53-.19.1-.35.28-.44.49Z"/>
                <path class="cls-1" d="m55.05,622.78c-.42,1.01.47,2,1.39,1.53.19-.1.35-.28.44-.49.42-1.01-.47-2-1.39-1.53-.19.1-.35.28-.44.49Z"/>
                <path class="cls-1" d="m128.86,796.48c-.42,1.01.47,2,1.39,1.53.19-.1.35-.28.44-.49.42-1.01-.47-2-1.39-1.53-.19.1-.35.27-.44.49Z"/>
                <path class="cls-1" d="m275.56,671.62c-.42,1.01.47,2,1.39,1.53.19-.1.35-.28.44-.49.42-1.01-.47-2-1.39-1.53-.19.1-.35.28-.44.49Z"/>
                <path class="cls-1" d="m200.72,578.1c-.42,1.01.47,2,1.39,1.53.19-.1.35-.27.44-.49.42-1.01-.47-2-1.39-1.53-.19.1-.35.28-.44.49Z"/>
                <path class="cls-1" d="m195.77,307.58c-.42,1.01.47,2,1.39,1.53.19-.1.35-.28.44-.49.42-1.01-.47-2-1.39-1.53-.19.1-.35.27-.44.49Z"/>
                <path class="cls-1" d="m346.79,225.93c-.42,1.01.47,2,1.39,1.53.19-.1.35-.27.44-.49.42-1.01-.47-2-1.39-1.53-.19.1-.35.28-.44.49Z"/>
                <path class="cls-1" d="m426.82,252.86c-.42,1.01.47,2,1.39,1.53.19-.1.35-.28.44-.49.42-1.01-.47-2-1.39-1.53-.19.1-.35.28-.44.49Z"/>
                <path class="cls-1" d="m377.48,317.11c-.42,1.01.47,2,1.39,1.53.19-.1.35-.27.44-.49.42-1.01-.47-2-1.39-1.53-.19.1-.35.28-.44.49Z"/>
                <path class="cls-1" d="m684.58,189.06c-.42,1.01.47,2,1.39,1.53.19-.1.35-.28.44-.49.42-1.01-.47-2-1.39-1.53-.19.1-.35.28-.44.49Z"/>
                <path class="cls-1" d="m780.52,389.22c-.42,1.01.47,2,1.39,1.53.19-.1.35-.28.44-.49.42-1.02-.47-2-1.39-1.53-.19.1-.35.28-.44.49Z"/>
                <path class="cls-1" d="m577.49,182.85c-.42,1.01.47,2,1.39,1.53.19-.1.35-.28.44-.49.42-1.01-.47-2-1.39-1.53-.19.1-.35.28-.44.49Z"/>
                <path class="cls-1" d="m618.57,310.61c-.42,1.01.47,2,1.39,1.53.19-.1.35-.27.44-.49.42-1.02-.47-2-1.39-1.53-.19.1-.35.28-.44.49Z"/>
                <path class="cls-1" d="m791.69,241.53c-.42,1.01.47,2,1.39,1.53.19-.1.35-.27.44-.49.42-1.02-.47-2-1.39-1.53-.19.1-.35.28-.44.49Z"/>
                <path class="cls-1" d="m780,74.49c-.42,1.02.47,2,1.39,1.53.19-.1.35-.28.44-.49.42-1.01-.47-2-1.39-1.53-.19.1-.35.27-.44.49Z"/>
                <path class="cls-1" d="m791.33,102.16c-.42,1.02.47,2,1.39,1.53.19-.1.35-.28.44-.49.42-1.01-.47-2-1.39-1.53-.19.1-.35.27-.44.49Z"/>
                <path class="cls-1" d="m759.98,186.08c-.42,1.01.47,2,1.39,1.53.19-.1.35-.28.44-.49.42-1.01-.47-2-1.39-1.53-.19.1-.35.28-.44.49Z"/>
                <path class="cls-1" d="m791.45,152.59c-.42,1.01.47,2,1.39,1.53.19-.1.35-.28.44-.49.42-1.01-.47-2-1.39-1.53-.19.1-.35.28-.44.49Z"/>
                <path class="cls-1" d="m758.39,119.84c-.42,1.01.47,2,1.39,1.53.19-.1.35-.28.44-.49.42-1.02-.47-2-1.39-1.53-.19.1-.35.28-.44.49Z"/>
                <path class="cls-1" d="m597.67,79.93c-.42,1.01.47,2,1.39,1.53.19-.1.35-.28.44-.49.42-1.01-.47-2-1.39-1.53-.19.1-.35.28-.44.49Z"/>
                <path class="cls-1" d="m679.19,129.54c-.42,1.02.47,2,1.39,1.53.19-.1.35-.28.44-.49.42-1.01-.47-2-1.39-1.53-.19.1-.35.28-.44.49Z"/>
                <path class="cls-1" d="m522.3,159.62c-.42,1.01.47,2,1.39,1.53.19-.1.35-.28.44-.49.42-1.01-.47-2-1.39-1.53-.19.1-.35.27-.44.49Z"/>
                <path class="cls-1" d="m530.18,224.75c-.42,1.01.47,2,1.39,1.53.19-.1.35-.28.44-.49.42-1.01-.47-2-1.39-1.53-.19.1-.35.28-.44.49Z"/>
                <path class="cls-1" d="m391.75,201.76c-.42,1.01.47,2,1.39,1.53.19-.1.35-.28.44-.49.42-1.01-.47-2-1.39-1.53-.19.1-.35.28-.44.49Z"/>
                <path class="cls-1" d="m477.46,77.6c-.42,1.01.47,2,1.39,1.53.19-.1.35-.27.44-.49.42-1.01-.47-2-1.39-1.53-.19.1-.35.28-.44.49Z"/>
                <path class="cls-1" d="m410.49,158.75c-.42,1.01.47,2,1.39,1.53.19-.1.35-.28.44-.49.42-1.01-.47-2-1.39-1.53-.19.1-.35.28-.44.49Z"/>
                <path class="cls-1" d="m426.99,180.54c-.42,1.01.47,2,1.39,1.53.19-.1.35-.28.44-.49.42-1.01-.47-2-1.39-1.53-.19.1-.35.28-.44.49Z"/>
                <path class="cls-1" d="m450.97,207.67c-.42,1.01.47,2,1.39,1.53.19-.1.35-.28.44-.49.42-1.01-.47-2-1.39-1.53-.19.1-.35.28-.44.49Z"/>
                <path class="cls-1" d="m471.82,138.76c-.42,1.01.47,2,1.39,1.53.19-.1.35-.28.44-.49.42-1.01-.47-2-1.39-1.53-.19.1-.35.28-.44.49Z"/>
                <path class="cls-1" d="m413.66,49.43c-.42,1.01.47,2,1.39,1.53.19-.1.35-.28.44-.49.42-1.01-.47-2-1.39-1.53-.19.1-.35.28-.44.49Z"/>
                <path class="cls-1" d="m286.59,88.29c-.42,1.01.47,2,1.39,1.53.19-.1.35-.27.44-.49.42-1.02-.47-2-1.39-1.53-.19.1-.35.28-.44.49Z"/>
                <path class="cls-1" d="m291.39,95.91c-.42,1.01.47,2,1.39,1.53.19-.1.35-.28.44-.49.42-1.01-.47-2-1.39-1.53-.19.1-.35.28-.44.49Z"/>
                <path class="cls-1" d="m230.35,64.16c-.42,1.01.47,2,1.39,1.53.19-.1.35-.28.44-.49.42-1.01-.47-2-1.39-1.53-.19.1-.35.28-.44.49Z"/>
                <path class="cls-1" d="m133.42,165.69c-.42,1.01.47,2,1.39,1.53.19-.1.35-.27.44-.49.42-1.01-.47-2-1.39-1.53-.19.1-.35.28-.44.49Z"/>
                <path class="cls-1" d="m220.01,204.65c-.42,1.01.47,2,1.39,1.53.19-.1.35-.28.44-.49.42-1.01-.47-2-1.39-1.53-.19.1-.35.28-.44.49Z"/>
                <path class="cls-1" d="m98.14,250.36c-.42,1.01.47,2,1.39,1.53.19-.1.35-.28.44-.49.42-1.01-.47-2-1.39-1.53-.19.1-.35.28-.44.49Z"/>
                <path class="cls-1" d="m90.91,295.22c-.42,1.01.47,2,1.39,1.53.19-.1.35-.27.44-.49.42-1.02-.47-2-1.39-1.53-.19.1-.35.28-.44.49Z"/>
                <path class="cls-1" d="m166.1,58.25c-.42,1.01.47,2,1.39,1.53.19-.1.35-.28.44-.49.42-1.01-.47-2-1.39-1.53-.19.1-.35.28-.44.49Z"/>
                <path class="cls-1" d="m124.76,187.66c-.42,1.01.47,2,1.39,1.53.19-.1.35-.27.44-.49.42-1.01-.47-2-1.39-1.53-.19.1-.35.28-.44.49Z"/>
                <path class="cls-1" d="m133.02,220.56c-.42,1.01.47,2,1.39,1.53.19-.1.35-.27.44-.49.42-1.02-.47-2-1.39-1.53-.19.1-.35.28-.44.49Z"/>
                <path class="cls-1" d="m95.6,354.91c-.42,1.01.47,2,1.39,1.53.19-.1.35-.28.44-.49.42-1.01-.47-2-1.39-1.53-.19.1-.35.27-.44.49Z"/>
                <path class="cls-1" d="m46.08,294.83c-.42,1.01.47,2,1.39,1.53.19-.1.35-.27.44-.49.42-1.01-.47-2-1.39-1.53-.19.1-.35.28-.44.49Z"/>
                <path class="cls-1" d="m13.45,522.61c-.42,1.01.47,2,1.39,1.53.19-.1.35-.28.44-.49.42-1.01-.47-2-1.39-1.53-.19.1-.35.28-.44.49Z"/>
                <path class="cls-1" d="m31.72,457.56c-.42,1.01.47,2,1.39,1.53.19-.1.35-.27.44-.49.42-1.02-.47-2-1.39-1.53-.19.1-.35.28-.44.49Z"/>
                <path class="cls-1" d="m10.35,486.61c-.42,1.01.47,2,1.39,1.53.19-.1.35-.28.44-.49.42-1.02-.47-2-1.39-1.53-.19.1-.35.28-.44.49Z"/>
                <path class="cls-1" d="m55.36,740.74c-.42,1.02.47,2,1.39,1.53.19-.1.35-.28.44-.49.42-1.01-.47-2-1.39-1.53-.19.1-.35.27-.44.49Z"/>
                <path class="cls-1" d="m134.07,565.98c-.42,1.01.47,2,1.39,1.53.19-.1.35-.28.44-.49.42-1.01-.47-2-1.39-1.53-.19.1-.35.28-.44.49Z"/>
                <path class="cls-1" d="m112.93,544.1c-.42,1.01.47,2,1.39,1.53.19-.1.35-.28.44-.49.42-1.01-.47-2-1.39-1.53-.19.1-.35.28-.44.49Z"/>
                <path class="cls-1" d="m59.56,588.96c-.42,1.01.47,2,1.39,1.53.19-.1.35-.27.44-.49.42-1.01-.47-2-1.39-1.53-.19.1-.35.28-.44.49Z"/>
                <path class="cls-1" d="m117.88,705.55c-.42,1.01.47,2,1.39,1.53.19-.1.35-.28.44-.49.42-1.01-.47-2-1.39-1.53-.19.1-.35.27-.44.49Z"/>
                <path class="cls-1" d="m95.61,684.71c-.42,1.01.47,2,1.39,1.53.19-.1.35-.28.44-.49.42-1.01-.47-2-1.39-1.53-.19.1-.35.28-.44.49Z"/>
                <path class="cls-1" d="m85.74,593.05c-.42,1.01.47,2,1.39,1.53.19-.1.35-.28.44-.49.42-1.01-.47-2-1.39-1.53-.19.1-.35.28-.44.49Z"/>
                <path class="cls-1" d="m291.09,330.13c-.42,1.01.47,2,1.39,1.53.19-.1.35-.28.44-.49.42-1.01-.47-2-1.39-1.53-.19.1-.35.28-.44.49Z"/>
                <path class="cls-1" d="m277.17,349.26c-.42,1.01.47,2,1.39,1.53.19-.1.35-.28.44-.49.42-1.01-.47-2-1.39-1.53-.19.1-.35.28-.44.49Z"/>
                <path class="cls-1" d="m322.68,291.48c-.42,1.01.47,2,1.39,1.53.19-.1.35-.27.44-.49.42-1.02-.47-2-1.39-1.53-.19.1-.35.28-.44.49Z"/>
                <path class="cls-1" d="m385.06,325.51c-.42,1.01.47,2,1.39,1.53.19-.1.35-.28.44-.49.42-1.01-.47-2-1.39-1.53-.19.1-.35.27-.44.49Z"/>
                <path class="cls-1" d="m320.24,453.7c-.42,1.01.47,2,1.39,1.53.19-.1.35-.28.44-.49.42-1.01-.47-2-1.39-1.53-.19.1-.35.28-.44.49Z"/>
                <path class="cls-1" d="m392.77,376.4c-.42,1.01.47,2,1.39,1.53.19-.1.35-.28.44-.49.42-1.01-.47-2-1.39-1.53-.19.1-.35.27-.44.49Z"/>
                <path class="cls-1" d="m347.3,372.31c-.42,1.01.47,2,1.39,1.53.19-.1.35-.28.44-.49.42-1.01-.47-2-1.39-1.53-.19.1-.35.28-.44.49Z"/>
                <path class="cls-1" d="m671.64,256.52c-.42,1.01.47,2,1.39,1.53.19-.1.35-.28.44-.49.42-1.01-.47-2-1.39-1.53-.19.1-.35.28-.44.49Z"/>
                <path class="cls-1" d="m574.3,306.65c-.42,1.01.47,2,1.39,1.53.19-.1.35-.28.44-.49.42-1.01-.47-2-1.39-1.53-.19.1-.35.27-.44.49Z"/>
                <path class="cls-1" d="m741.32,293.84c-.42,1.01.47,2,1.39,1.53.19-.1.35-.27.44-.49.42-1.02-.47-2-1.39-1.53-.19.1-.35.28-.44.49Z"/>
                <path class="cls-1" d="m623.12,301.17c-.42,1.01.47,2,1.39,1.53.19-.1.35-.28.44-.49.42-1.01-.47-2-1.39-1.53-.19.1-.35.28-.44.49Z"/>
                <path class="cls-1" d="m786.31,715.88c-.42,1.01.47,2,1.39,1.53.19-.1.35-.28.44-.49.42-1.02-.47-2-1.39-1.53-.19.1-.35.28-.44.49Z"/>
                <path class="cls-1" d="m748.27,783.72c-.42,1.01.47,2,1.39,1.53.19-.1.35-.28.44-.49.42-1.02-.47-2-1.39-1.53-.19.1-.35.28-.44.49Z"/>
                <path class="cls-1" d="m756.74,645.49c-.42,1.02.47,2,1.39,1.53.19-.1.35-.28.44-.49.42-1.01-.47-2-1.39-1.53-.19.1-.35.28-.44.49Z"/>
                <path class="cls-1" d="m670.46,566.41c-.42,1.01.47,2,1.39,1.53.19-.1.35-.28.44-.49.42-1.01-.47-2-1.39-1.53-.19.1-.35.28-.44.49Z"/>
                <path class="cls-1" d="m611.43,533.23c-.42,1.01.47,2,1.39,1.53.19-.1.35-.27.44-.49.42-1.02-.47-2-1.39-1.53-.19.1-.35.28-.44.49Z"/>
                <path class="cls-1" d="m588.23,469.05c-.42,1.01.47,2,1.39,1.53.19-.1.35-.27.44-.49.42-1.01-.47-2-1.39-1.53-.19.1-.35.28-.44.49Z"/>
                <path class="cls-1" d="m586.2,419.12c-.42,1.01.47,2,1.39,1.53.19-.1.35-.28.44-.49.42-1.01-.47-2-1.39-1.53-.19.1-.35.27-.44.49Z"/>
                <path class="cls-1" d="m557.05,454.27c-.42,1.01.47,2,1.39,1.53.19-.1.35-.28.44-.49.42-1.01-.47-2-1.39-1.53-.19.1-.35.28-.44.49Z"/>
                <path class="cls-1" d="m670.67,433.66c-.42,1.01.47,2,1.39,1.53.19-.1.35-.27.44-.49.42-1.01-.47-2-1.39-1.53-.19.1-.35.28-.44.49Z"/>
                <path class="cls-1" d="m784.78,418.34c-.42,1.02.47,2,1.39,1.53.19-.1.35-.28.44-.49.42-1.01-.47-2-1.39-1.53-.19.1-.35.27-.44.49Z"/>
                <path class="cls-1" d="m796.75,404.56c-.42,1.02.47,2,1.39,1.53.19-.1.35-.28.44-.49.42-1.01-.47-2-1.39-1.53-.19.1-.35.28-.44.49Z"/>
                <path class="cls-1" d="m758.16,485.41c-.42,1.01.47,2,1.39,1.53.19-.1.35-.27.44-.49.42-1.02-.47-2-1.39-1.53-.19.1-.35.28-.44.49Z"/>
                <path class="cls-1" d="m642.83,443.02c-.42,1.01.47,2,1.39,1.53.19-.1.35-.28.44-.49.42-1.01-.47-2-1.39-1.53-.19.1-.35.28-.44.49Z"/>
                <path class="cls-1" d="m537.81,387.12c-.42,1.01.47,2,1.39,1.53.19-.1.35-.28.44-.49.42-1.02-.47-2-1.39-1.53-.19.1-.35.28-.44.49Z"/>
                <path class="cls-1" d="m460.35,423.48c-.42,1.01.47,2,1.39,1.53.19-.1.35-.28.44-.49.42-1.01-.47-2-1.39-1.53-.19.1-.35.28-.44.49Z"/>
                <path class="cls-1" d="m457.9,411.87c-.42,1.01.47,2,1.39,1.53.19-.1.35-.28.44-.49.42-1.01-.47-2-1.39-1.53-.19.1-.35.28-.44.49Z"/>
                <path class="cls-1" d="m512.48,286.66c-.42,1.01.47,2,1.39,1.53.19-.1.35-.28.44-.49.42-1.01-.47-2-1.39-1.53-.19.1-.35.27-.44.49Z"/>
                <path class="cls-1" d="m486.88,253.14c-.42,1.01.47,2,1.39,1.53.19-.1.35-.28.44-.49.42-1.01-.47-2-1.39-1.53-.19.1-.35.28-.44.49Z"/>
                <path class="cls-1" d="m335.52,379.07c-.42,1.01.47,2,1.39,1.53.19-.1.35-.28.44-.49.42-1.01-.47-2-1.39-1.53-.19.1-.35.28-.44.49Z"/>
                <path class="cls-1" d="m399.05,502.85c-.42,1.01.47,2,1.39,1.53.19-.1.35-.28.44-.49.42-1.01-.47-2-1.39-1.53-.19.1-.35.27-.44.49Z"/>
                <path class="cls-1" d="m504.56,568.83c-.42,1.01.47,2,1.39,1.53.19-.1.35-.28.44-.49.42-1.01-.47-2-1.39-1.53-.19.1-.35.28-.44.49Z"/>
                <path class="cls-1" d="m484.72,501.18c-.42,1.01.47,2,1.39,1.53.19-.1.35-.28.44-.49.42-1.02-.47-2-1.39-1.53-.19.1-.35.28-.44.49Z"/>
                <path class="cls-1" d="m418.91,537.9c-.42,1.01.47,2,1.39,1.53.19-.1.35-.28.44-.49.42-1.01-.47-2-1.39-1.53-.19.1-.35.28-.44.49Z"/>
                <path class="cls-1" d="m417,603.98c-.42,1.01.47,2,1.39,1.53.19-.1.35-.28.44-.49.42-1.01-.47-2-1.39-1.53-.19.1-.35.28-.44.49Z"/>
                <path class="cls-1" d="m448.54,633.64c-.42,1.01.47,2,1.39,1.53.19-.1.35-.28.44-.49.42-1.01-.47-2-1.39-1.53-.19.1-.35.28-.44.49Z"/>
                <path class="cls-1" d="m463.29,677.46c-.42,1.01.47,2,1.39,1.53.19-.1.35-.27.44-.49.42-1.02-.47-2-1.39-1.53-.19.1-.35.28-.44.49Z"/>
                <path class="cls-1" d="m404.89,707.38c-.42,1.01.47,2,1.39,1.53.19-.1.35-.28.44-.49.42-1.01-.47-2-1.39-1.53-.19.1-.35.28-.44.49Z"/>
                <path class="cls-1" d="m348.96,572.5c-.42,1.02.47,2,1.39,1.53.19-.1.35-.28.44-.49.42-1.01-.47-2-1.39-1.53-.19.1-.35.28-.44.49Z"/>
                <path class="cls-1" d="m326.06,578.93c-.42,1.01.47,2,1.39,1.53.19-.1.35-.28.44-.49.42-1.01-.47-2-1.39-1.53-.19.1-.35.28-.44.49Z"/>
                <path class="cls-1" d="m246.6,617.58c-.42,1.01.47,2,1.39,1.53.19-.1.35-.28.44-.49.42-1.01-.47-2-1.39-1.53-.19.1-.35.28-.44.49Z"/>
                <path class="cls-1" d="m209.93,640.36c-.42,1.01.47,2,1.39,1.53.19-.1.35-.28.44-.49.42-1.01-.47-2-1.39-1.53-.19.1-.35.27-.44.49Z"/>
                <path class="cls-1" d="m267.38,659.76c-.42,1.01.47,2,1.39,1.53.19-.1.35-.27.44-.49.42-1.01-.47-2-1.39-1.53-.19.1-.35.28-.44.49Z"/>
                <path class="cls-1" d="m444.5,690.57c-.42,1.01.47,2,1.39,1.53.19-.1.35-.28.44-.49.42-1.01-.47-2-1.39-1.53-.19.1-.35.28-.44.49Z"/>
                <path class="cls-1" d="m420.99,703.05c-.42,1.01.47,2,1.39,1.53.19-.1.35-.28.44-.49.42-1.01-.47-2-1.39-1.53-.19.1-.35.28-.44.49Z"/>
                <path class="cls-1" d="m319.38,621.98c-.42,1.01.47,2,1.39,1.53.19-.1.35-.28.44-.49.42-1.01-.47-2-1.39-1.53-.19.1-.35.28-.44.49Z"/>
                <path class="cls-1" d="m259.82,560.95c-.42,1.01.47,2,1.39,1.53.19-.1.35-.28.44-.49.42-1.01-.47-2-1.39-1.53-.19.1-.35.28-.44.49Z"/>
                <path class="cls-1" d="m243.15,535.74c-.42,1.01.47,2,1.39,1.53.19-.1.35-.27.44-.49.42-1.01-.47-2-1.39-1.53-.19.1-.35.28-.44.49Z"/>
                <path class="cls-1" d="m295.04,431.13c-.42,1.01.47,2,1.39,1.53.19-.1.35-.28.44-.49.42-1.01-.47-2-1.39-1.53-.19.1-.35.27-.44.49Z"/>
                <path class="cls-1" d="m315.55,527.69c-.42,1.01.47,2,1.39,1.53.19-.1.35-.28.44-.49.42-1.01-.47-2-1.39-1.53-.19.1-.35.28-.44.49Z"/>
                <path class="cls-1" d="m231.24,403.43c-.42,1.01.47,2,1.39,1.53.19-.1.35-.27.44-.49.42-1.01-.47-2-1.39-1.53-.19.1-.35.28-.44.49Z"/>
                <path class="cls-1" d="m224.18,414.13c-.42,1.01.47,2,1.39,1.53.19-.1.35-.28.44-.49.42-1.01-.47-2-1.39-1.53-.19.1-.35.28-.44.49Z"/>
                <path class="cls-1" d="m168.12,541.65c-.42,1.01.47,2,1.39,1.53.19-.1.35-.28.44-.49.42-1.01-.47-2-1.39-1.53-.19.1-.35.28-.44.49Z"/>
                <path class="cls-1" d="m194.07,550.12c-.42,1.01.47,2,1.39,1.53.19-.1.35-.28.44-.49.42-1.01-.47-2-1.39-1.53-.19.1-.35.28-.44.49Z"/>
                <path class="cls-1" d="m215.77,507.16c-.42,1.01.47,2,1.39,1.53.19-.1.35-.28.44-.49.42-1.02-.47-2-1.39-1.53-.19.1-.35.28-.44.49Z"/>
                <path class="cls-1" d="m214.06,481.5c-.42,1.01.47,2,1.39,1.53.19-.1.35-.27.44-.49.42-1.01-.47-2-1.39-1.53-.19.1-.35.28-.44.49Z"/>
                <path class="cls-1" d="m175.42,471.98c-.42,1.01.47,2,1.39,1.53.19-.1.35-.28.44-.49.42-1.01-.47-2-1.39-1.53-.19.1-.35.28-.44.49Z"/>
                <path class="cls-1" d="m137.56,608.25c-.42,1.01.47,2,1.39,1.53.19-.1.35-.28.44-.49.42-1.01-.47-2-1.39-1.53-.19.1-.35.28-.44.49Z"/>
                <path class="cls-1" d="m164.52,692.36c-.42,1.02.47,2,1.39,1.53.19-.1.35-.28.44-.49.42-1.01-.47-2-1.39-1.53-.19.1-.35.27-.44.49Z"/>
                <path class="cls-1" d="m185.32,707.24c-.42,1.01.47,2,1.39,1.53.19-.1.35-.28.44-.49.42-1.01-.47-2-1.39-1.53-.19.1-.35.28-.44.49Z"/>
                <path class="cls-1" d="m225.01,743.79c-.42,1.01.47,2,1.39,1.53.19-.1.35-.28.44-.49.42-1.01-.47-2-1.39-1.53-.19.1-.35.28-.44.49Z"/>
                <path class="cls-1" d="m260.96,749.43c-.42,1.01.47,2,1.39,1.53.19-.1.35-.28.44-.49.42-1.01-.47-2-1.39-1.53-.19.1-.35.28-.44.49Z"/>
                <path class="cls-1" d="m271.76,759.19c-.42,1.01.47,2,1.39,1.53.19-.1.35-.28.44-.49.42-1.01-.47-2-1.39-1.53-.19.1-.35.28-.44.49Z"/>
                <path class="cls-1" d="m283.67,793.95c-.42,1.01.47,2,1.39,1.53.19-.1.35-.28.44-.49.42-1.01-.47-2-1.39-1.53-.19.1-.35.28-.44.49Z"/>
                <path class="cls-1" d="m328.54,819.29c-.42,1.01.47,2,1.39,1.53.19-.1.35-.27.44-.49.42-1.01-.47-2-1.39-1.53-.19.1-.35.28-.44.49Z"/>
                <path class="cls-1" d="m455.23,834c-.42,1.01.47,2,1.39,1.53.19-.1.35-.28.44-.49.42-1.01-.47-2-1.39-1.53-.19.1-.35.28-.44.49Z"/>
                <path class="cls-1" d="m559.77,836.41c-.42,1.01.47,2,1.39,1.53.19-.1.35-.28.44-.49.42-1.01-.47-2-1.39-1.53-.19.1-.35.28-.44.49Z"/>
                <path class="cls-1" d="m775.88,727.75c-.42,1.02.47,2,1.39,1.53.19-.1.35-.28.44-.49.42-1.01-.47-2-1.39-1.53-.19.1-.35.27-.44.49Z"/>
                <path class="cls-1" d="m682.83,757.25c-.42,1.02.47,2,1.39,1.53.19-.1.35-.28.44-.49.42-1.01-.47-2-1.39-1.53-.19.1-.35.27-.44.49Z"/>
                <path class="cls-1" d="m630.95,704.83c-.42,1.01.47,2,1.39,1.53.19-.1.35-.27.44-.49.42-1.01-.47-2-1.39-1.53-.19.1-.35.28-.44.49Z"/>
                <path class="cls-1" d="m795.33,804.61c-.42,1.01.47,2,1.39,1.53.19-.1.35-.28.44-.49.42-1.01-.47-2-1.39-1.53-.19.1-.35.27-.44.49Z"/>
                <path class="cls-1" d="m664.76,588.44c-.42,1.02.47,2,1.39,1.53.19-.1.35-.28.44-.49.42-1.01-.47-2-1.39-1.53-.19.1-.35.28-.44.49Z"/>
                <path class="cls-1" d="m604.96,681.97c-.42,1.01.47,2,1.39,1.53.19-.1.35-.27.44-.49.42-1.02-.47-2-1.39-1.53-.19.1-.35.28-.44.49Z"/>
                <path class="cls-1" d="m761.24,551.72c-.42,1.02.47,2,1.39,1.53.19-.1.35-.28.44-.49.42-1.01-.47-2-1.39-1.53-.19.1-.35.27-.44.49Z"/>
                <path class="cls-1" d="m782.44,604.2c-.42,1.01.47,2,1.39,1.53.19-.1.35-.27.44-.49.42-1.01-.47-2-1.39-1.53-.19.1-.35.28-.44.49Z"/>
                <path class="cls-1" d="m736.18,505.92c-.42,1.01.47,2,1.39,1.53.19-.1.35-.28.44-.49.42-1.01-.47-2-1.39-1.53-.19.1-.35.27-.44.49Z"/>
                <path class="cls-1" d="m654.57,430.82c-.42,1.01.47,2,1.39,1.53.19-.1.35-.27.44-.49.42-1.01-.47-2-1.39-1.53-.19.1-.35.28-.44.49Z"/>
                <path class="cls-1" d="m629.37,335.32c-.42,1.02.47,2,1.39,1.53.19-.1.35-.28.44-.49.42-1.01-.47-2-1.39-1.53-.19.1-.35.27-.44.49Z"/>
                <path class="cls-1" d="m654.49,354.05c-.42,1.01.47,2,1.39,1.53.19-.1.35-.28.44-.49.42-1.01-.47-2-1.39-1.53-.19.1-.35.28-.44.49Z"/>
                <path class="cls-1" d="m709.76,382.23c-.42,1.01.47,2,1.39,1.53.19-.1.35-.28.44-.49.42-1.01-.47-2-1.39-1.53-.19.1-.35.27-.44.49Z"/>
                <path class="cls-1" d="m715.72,409.13c-.42,1.01.47,2,1.39,1.53.19-.1.35-.28.44-.49.42-1.01-.47-2-1.39-1.53-.19.1-.35.28-.44.49Z"/>
                <path class="cls-1" d="m725.25,432.36c-.42,1.01.47,2,1.39,1.53.19-.1.35-.28.44-.49.42-1.01-.47-2-1.39-1.53-.19.1-.35.28-.44.49Z"/>
                <path class="cls-1" d="m724.76,359.84c-.42,1.01.47,2,1.39,1.53.19-.1.35-.28.44-.49.42-1.01-.47-2-1.39-1.53-.19.1-.35.28-.44.49Z"/>
                <path class="cls-1" d="m712.41,324.15c-.42,1.01.47,2,1.39,1.53.19-.1.35-.28.44-.49.42-1.01-.47-2-1.39-1.53-.19.1-.35.28-.44.49Z"/>
                <path class="cls-1" d="m688.6,303.91c-.42,1.01.47,2,1.39,1.53.19-.1.35-.28.44-.49.42-1.01-.47-2-1.39-1.53-.19.1-.35.28-.44.49Z"/>
                <path class="cls-1" d="m670.37,272.05c-.42,1.01.47,2,1.39,1.53.19-.1.35-.28.44-.49.42-1.01-.47-2-1.39-1.53-.19.1-.35.28-.44.49Z"/>
                <path class="cls-1" d="m757.2,239.19c-.42,1.01.47,2,1.39,1.53.19-.1.35-.28.44-.49.42-1.01-.47-2-1.39-1.53-.19.1-.35.27-.44.49Z"/>
                <path class="cls-1" d="m636.1,234.68c-.42,1.02.47,2,1.39,1.53.19-.1.35-.28.44-.49.42-1.01-.47-2-1.39-1.53-.19.1-.35.28-.44.49Z"/>
                <path class="cls-1" d="m618.02,228.41c-.42,1.01.47,2,1.39,1.53.19-.1.35-.28.44-.49.42-1.01-.47-2-1.39-1.53-.19.1-.35.28-.44.49Z"/>
                <path class="cls-1" d="m527.34,257.34c-.42,1.01.47,2,1.39,1.53.19-.1.35-.28.44-.49.42-1.01-.47-2-1.39-1.53-.19.1-.35.28-.44.49Z"/>
                <path class="cls-1" d="m480.49,340.16c-.42,1.02.47,2,1.39,1.53.19-.1.35-.28.44-.49.42-1.01-.47-2-1.39-1.53-.19.1-.35.28-.44.49Z"/>
                <path class="cls-1" d="m466.72,326.58c-.42,1.01.47,2,1.39,1.53.19-.1.35-.27.44-.49.42-1.02-.47-2-1.39-1.53-.19.1-.35.28-.44.49Z"/>
                <path class="cls-1" d="m391.14,261.61c-.42,1.01.47,2,1.39,1.53.19-.1.35-.28.44-.49.42-1.01-.47-2-1.39-1.53-.19.1-.35.28-.44.49Z"/>
                <path class="cls-1" d="m299.46,209.34c-.42,1.01.47,2,1.39,1.53.19-.1.35-.28.44-.49.42-1.01-.47-2-1.39-1.53-.19.1-.35.28-.44.49Z"/>
                <path class="cls-1" d="m301.61,156.06c-.42,1.01.47,2,1.39,1.53.19-.1.35-.28.44-.49.42-1.01-.47-2-1.39-1.53-.19.1-.35.28-.44.49Z"/>
                <path class="cls-1" d="m207.46,271.85c-.42,1.01.47,2,1.39,1.53.19-.1.35-.27.44-.49.42-1.01-.47-2-1.39-1.53-.19.1-.35.28-.44.49Z"/>
                <path class="cls-1" d="m187.64,288.05c-.42,1.01.47,2,1.39,1.53.19-.1.35-.28.44-.49.42-1.01-.47-2-1.39-1.53-.19.1-.35.28-.44.49Z"/>
                <path class="cls-1" d="m151.65,244.37c-.42,1.01.47,2,1.39,1.53.19-.1.35-.28.44-.49.42-1.01-.47-2-1.39-1.53-.19.1-.35.28-.44.49Z"/>
                <path class="cls-1" d="m194.38,205.69c-.42,1.02.47,2,1.39,1.53.19-.1.35-.28.44-.49.42-1.01-.47-2-1.39-1.53-.19.1-.35.28-.44.49Z"/>
                <path class="cls-1" d="m160.77,129.57c-.42,1.01.47,2,1.39,1.53.19-.1.35-.28.44-.49.42-1.01-.47-2-1.39-1.53-.19.1-.35.27-.44.49Z"/>
                <path class="cls-1" d="m47.47,162.73c-.42,1.01.47,2,1.39,1.53.19-.1.35-.28.44-.49.42-1.01-.47-2-1.39-1.53-.19.1-.35.28-.44.49Z"/>
                <path class="cls-1" d="m49.14,189.82c-.42,1.01.47,2,1.39,1.53.19-.1.35-.28.44-.49.42-1.01-.47-2-1.39-1.53-.19.1-.35.28-.44.49Z"/>
                <path class="cls-1" d="m4.87,398.3c-.42,1.01.47,2,1.39,1.53.19-.1.35-.27.44-.49.42-1.01-.47-2-1.39-1.53-.19.1-.35.28-.44.49Z"/>
                <path class="cls-1" d="m13.36,599.35c-.42,1.02.47,2,1.39,1.53.19-.1.35-.28.44-.49.42-1.01-.47-2-1.39-1.53-.19.1-.35.28-.44.49Z"/>
                <path class="cls-1" d="m13.05,591.63c-.42,1.01.47,2,1.39,1.53.19-.1.35-.27.44-.49.42-1.02-.47-2-1.39-1.53-.19.1-.35.28-.44.49Z"/>
                <path class="cls-1" d="m77.48,739.4c-.42,1.02.47,2,1.39,1.53.19-.1.35-.28.44-.49.42-1.01-.47-2-1.39-1.53-.19.1-.35.28-.44.49Z"/>
                <path class="cls-1" d="m24.02,767.57c-.42,1.02.47,2,1.39,1.53.19-.1.35-.28.44-.49.42-1.01-.47-2-1.39-1.53-.19.1-.35.27-.44.49Z"/>
                <path class="cls-1" d="m14.19,728.12c-.42,1.01.47,2,1.39,1.53.19-.1.35-.28.44-.49.42-1.01-.47-2-1.39-1.53-.19.1-.35.28-.44.49Z"/>
                <path class="cls-1" d="m213.68,785.75c-.42,1.01.47,2,1.39,1.53.19-.1.35-.28.44-.49.42-1.01-.47-2-1.39-1.53-.19.1-.35.28-.44.49Z"/>
                <path class="cls-1" d="m191.83,754.62c-.42,1.01.47,2,1.39,1.53.19-.1.35-.28.44-.49.42-1.01-.47-2-1.39-1.53-.19.1-.35.28-.44.49Z"/>
                <path class="cls-1" d="m128.5,753.32c-.42,1.01.47,2,1.39,1.53.19-.1.35-.28.44-.49.42-1.01-.47-2-1.39-1.53-.19.1-.35.27-.44.49Z"/>
                <path class="cls-1" d="m135.93,757.48c-.42,1.01.47,2,1.39,1.53.19-.1.35-.27.44-.49.42-1.02-.47-2-1.39-1.53-.19.1-.35.28-.44.49Z"/>
                <path class="cls-1" d="m337.54,708.04c-.42,1.02.47,2,1.39,1.53.19-.1.35-.28.44-.49.42-1.01-.47-2-1.39-1.53-.19.1-.35.27-.44.49Z"/>
                <path class="cls-1" d="m392.03,657.43c-.42,1.01.47,2,1.39,1.53.19-.1.35-.27.44-.49.42-1.01-.47-2-1.39-1.53-.19.1-.35.28-.44.49Z"/>
                <path class="cls-1" d="m413.93,645.31c-.42,1.01.47,2,1.39,1.53.19-.1.35-.28.44-.49.42-1.01-.47-2-1.39-1.53-.19.1-.35.27-.44.49Z"/>
                <path class="cls-1" d="m406.91,632.62c-.42,1.01.47,2,1.39,1.53.19-.1.35-.28.44-.49.42-1.01-.47-2-1.39-1.53-.19.1-.35.28-.44.49Z"/>
                <path class="cls-1" d="m512.95,658.98c-.42,1.01.47,2,1.39,1.53.19-.1.35-.28.44-.49.42-1.01-.47-2-1.39-1.53-.19.1-.35.28-.44.49Z"/>
                <path class="cls-1" d="m521.59,716.28c-.42,1.01.47,2,1.39,1.53.19-.1.35-.28.44-.49.42-1.01-.47-2-1.39-1.53-.19.1-.35.28-.44.49Z"/>
                <path class="cls-1" d="m523.32,754.14c-.42,1.02.47,2,1.39,1.53.19-.1.35-.28.44-.49.42-1.01-.47-2-1.39-1.53-.19.1-.35.27-.44.49Z"/>
                <path class="cls-1" d="m557.97,734.99c-.42,1.01.47,2,1.39,1.53.19-.1.35-.28.44-.49.42-1.01-.47-2-1.39-1.53-.19.1-.35.28-.44.49Z"/>
                <path class="cls-1" d="m607.47,585.85c-.42,1.01.47,2,1.39,1.53.19-.1.35-.28.44-.49.42-1.01-.47-2-1.39-1.53-.19.1-.35.28-.44.49Z"/>
                <path class="cls-1" d="m613.44,558.66c-.42,1.02.47,2,1.39,1.53.19-.1.35-.28.44-.49.42-1.01-.47-2-1.39-1.53-.19.1-.35.27-.44.49Z"/>
              </g>
              <g class="cls-7">
                <path class="cls-1" d="m69.41,96.12c.42,1.01-.47,2-1.39,1.53-.19-.1-.35-.28-.44-.49-.42-1.01.47-2,1.39-1.53.19.1.35.28.44.49Z"/>
                <path class="cls-1" d="m272,101.91c.42,1.01-.47,2-1.39,1.53-.19-.1-.35-.28-.44-.49-.42-1.02.47-2,1.39-1.53.19.1.35.28.44.49Z"/>
                <path class="cls-1" d="m304.07,123.5c.42,1.01-.47,2-1.39,1.53-.19-.1-.35-.28-.44-.49-.42-1.01.47-2,1.39-1.53.19.1.35.28.44.49Z"/>
                <path class="cls-1" d="m309.19,99.34c.42,1.01-.47,2-1.39,1.53-.19-.1-.35-.28-.44-.49-.42-1.01.47-2,1.39-1.53.19.1.35.28.44.49Z"/>
                <path class="cls-1" d="m349.88,47.29c.42,1.02-.47,2-1.39,1.53-.19-.1-.35-.28-.44-.49-.42-1.01.47-2,1.39-1.53.19.1.35.27.44.49Z"/>
                <path class="cls-1" d="m455.52,52.53c.42,1.01-.47,2-1.39,1.53-.19-.1-.35-.27-.44-.49-.42-1.02.47-2,1.39-1.53.19.1.35.28.44.49Z"/>
                <path class="cls-1" d="m473.9,152.05c.42,1.01-.47,2-1.39,1.53-.19-.1-.35-.28-.44-.49-.42-1.01.47-2,1.39-1.53.19.1.35.28.44.49Z"/>
                <path class="cls-1" d="m380.98,199.27c.42,1.01-.47,2-1.39,1.53-.19-.1-.35-.28-.44-.49-.42-1.01.47-2,1.39-1.53.19.1.35.27.44.49Z"/>
                <path class="cls-1" d="m179.54,229.58c.42,1.01-.47,2-1.39,1.53-.19-.1-.35-.28-.44-.49-.42-1.01.47-2,1.39-1.53.19.1.35.28.44.49Z"/>
                <path class="cls-1" d="m149.42,202.24c.42,1.01-.47,2-1.39,1.53-.19-.1-.35-.28-.44-.49-.42-1.01.47-2,1.39-1.53.19.1.35.27.44.49Z"/>
                <path class="cls-1" d="m93.49,136.65c.42,1.02-.47,2-1.39,1.53-.19-.1-.35-.28-.44-.49-.42-1.01.47-2,1.39-1.53.19.1.35.27.44.49Z"/>
                <path class="cls-1" d="m75.42,112.47c.42,1.01-.47,2-1.39,1.53-.19-.1-.35-.28-.44-.49-.42-1.01.47-2,1.39-1.53.19.1.35.28.44.49Z"/>
                <path class="cls-1" d="m32.3,238.47c.42,1.01-.47,2-1.39,1.53-.19-.1-.35-.27-.44-.49-.42-1.01.47-2,1.39-1.53.19.1.35.28.44.49Z"/>
                <path class="cls-1" d="m42.46,246.77c.42,1.01-.47,2-1.39,1.53-.19-.1-.35-.28-.44-.49-.42-1.01.47-2,1.39-1.53.19.1.35.27.44.49Z"/>
                <path class="cls-1" d="m15.49,227.96c.42,1.01-.47,2-1.39,1.53-.19-.1-.35-.28-.44-.49-.42-1.01.47-2,1.39-1.53.19.1.35.28.44.49Z"/>
                <path class="cls-1" d="m118.72,461.55c.42,1.02-.47,2-1.39,1.53-.19-.1-.35-.28-.44-.49-.42-1.01.47-2,1.39-1.53.19.1.35.27.44.49Z"/>
                <path class="cls-1" d="m124.72,417.74c.42,1.01-.47,2-1.39,1.53-.19-.1-.35-.28-.44-.49-.42-1.01.47-2,1.39-1.53.19.1.35.28.44.49Z"/>
                <path class="cls-1" d="m167.81,431.4c.42,1.01-.47,2-1.39,1.53-.19-.1-.35-.28-.44-.49-.42-1.01.47-2,1.39-1.53.19.1.35.28.44.49Z"/>
                <path class="cls-1" d="m278.37,360.15c.42,1.01-.47,2-1.39,1.53-.19-.1-.35-.28-.44-.49-.42-1.01.47-2,1.39-1.53.19.1.35.28.44.49Z"/>
                <path class="cls-1" d="m232.32,306.66c.42,1.01-.47,2-1.39,1.53-.19-.1-.35-.28-.44-.49-.42-1.01.47-2,1.39-1.53.19.1.35.28.44.49Z"/>
                <path class="cls-1" d="m238.92,302.8c.42,1.01-.47,2-1.39,1.53-.19-.1-.35-.28-.44-.49-.42-1.01.47-2,1.39-1.53.19.1.35.28.44.49Z"/>
                <path class="cls-1" d="m654.04,119.04c.42,1.01-.47,2-1.39,1.53-.19-.1-.35-.28-.44-.49-.42-1.01.47-2,1.39-1.53.19.1.35.28.44.49Z"/>
                <path class="cls-1" d="m709.3,97.9c.42,1.01-.47,2-1.39,1.53-.19-.1-.35-.27-.44-.49-.42-1.01.47-2,1.39-1.53.19.1.35.28.44.49Z"/>
                <path class="cls-1" d="m622.65,77.17c.42,1.01-.47,2-1.39,1.53-.19-.1-.35-.27-.44-.49-.42-1.01.47-2,1.39-1.53.19.1.35.28.44.49Z"/>
                <path class="cls-1" d="m579.19,75.68c.42,1.01-.47,2-1.39,1.53-.19-.1-.35-.28-.44-.49-.42-1.01.47-2,1.39-1.53.19.1.35.28.44.49Z"/>
                <path class="cls-1" d="m509.71,115.17c.42,1.02-.47,2-1.39,1.53-.19-.1-.35-.28-.44-.49-.42-1.01.47-2,1.39-1.53.19.1.35.28.44.49Z"/>
                <path class="cls-1" d="m560.04,184.76c.42,1.02-.47,2-1.39,1.53-.19-.1-.35-.28-.44-.49-.42-1.01.47-2,1.39-1.53.19.1.35.27.44.49Z"/>
                <path class="cls-1" d="m552.43,193.13c.42,1.01-.47,2-1.39,1.53-.19-.1-.35-.28-.44-.49-.42-1.01.47-2,1.39-1.53.19.1.35.28.44.49Z"/>
                <path class="cls-1" d="m409,187c.42,1.01-.47,2-1.39,1.53-.19-.1-.35-.28-.44-.49-.42-1.01.47-2,1.39-1.53.19.1.35.28.44.49Z"/>
                <path class="cls-1" d="m374.8,205.05c.42,1.01-.47,2-1.39,1.53-.19-.1-.35-.27-.44-.49-.42-1.01.47-2,1.39-1.53.19.1.35.28.44.49Z"/>
                <path class="cls-1" d="m124.81,338.65c.42,1.01-.47,2-1.39,1.53-.19-.1-.35-.28-.44-.49-.42-1.01.47-2,1.39-1.53.19.1.35.28.44.49Z"/>
                <path class="cls-1" d="m78.1,329.61c.42,1.01-.47,2-1.39,1.53-.19-.1-.35-.27-.44-.49-.42-1.01.47-2,1.39-1.53.19.1.35.28.44.49Z"/>
                <path class="cls-1" d="m26.3,298.74c.42,1.01-.47,2-1.39,1.53-.19-.1-.35-.28-.44-.49-.42-1.01.47-2,1.39-1.53.19.1.35.27.44.49Z"/>
                <path class="cls-1" d="m21.1,207.51c.42,1.01-.47,2-1.39,1.53-.19-.1-.35-.27-.44-.49-.42-1.01.47-2,1.39-1.53.19.1.35.28.44.49Z"/>
                <path class="cls-1" d="m20.77,127.24c.42,1.02-.47,2-1.39,1.53-.19-.1-.35-.28-.44-.49-.42-1.01.47-2,1.39-1.53.19.1.35.28.44.49Z"/>
                <path class="cls-1" d="m14.28,113.98c.42,1.01-.47,2-1.39,1.53-.19-.1-.35-.28-.44-.49-.42-1.01.47-2,1.39-1.53.19.1.35.27.44.49Z"/>
                <path class="cls-1" d="m203.33,298.48c.42,1.01-.47,2-1.39,1.53-.19-.1-.35-.28-.44-.49-.42-1.02.47-2,1.39-1.53.19.1.35.28.44.49Z"/>
                <path class="cls-1" d="m446.6,350.28c.42,1.02-.47,2-1.39,1.53-.19-.1-.35-.28-.44-.49-.42-1.01.47-2,1.39-1.53.19.1.35.27.44.49Z"/>
                <path class="cls-1" d="m547.56,356.99c.42,1.01-.47,2-1.39,1.53-.19-.1-.35-.28-.44-.49-.42-1.01.47-2,1.39-1.53.19.1.35.28.44.49Z"/>
                <path class="cls-1" d="m658.35,363.45c.42,1.01-.47,2-1.39,1.53-.19-.1-.35-.28-.44-.49-.42-1.01.47-2,1.39-1.53.19.1.35.28.44.49Z"/>
                <path class="cls-1" d="m768.67,351.72c.42,1.01-.47,2-1.39,1.53-.19-.1-.35-.28-.44-.49-.42-1.01.47-2,1.39-1.53.19.1.35.27.44.49Z"/>
                <path class="cls-1" d="m806.66,391.14c.42,1.01-.47,2-1.39,1.53-.19-.1-.35-.28-.44-.49-.42-1.01.47-2,1.39-1.53.19.1.35.28.44.49Z"/>
                <path class="cls-1" d="m521.88,510.42c.42,1.01-.47,2-1.39,1.53-.19-.1-.35-.28-.44-.49-.42-1.01.47-2,1.39-1.53.19.1.35.27.44.49Z"/>
                <path class="cls-1" d="m425.87,513.75c.42,1.01-.47,2-1.39,1.53-.19-.1-.35-.28-.44-.49-.42-1.01.47-2,1.39-1.53.19.1.35.28.44.49Z"/>
                <path class="cls-1" d="m380.25,516.51c.42,1.01-.47,2-1.39,1.53-.19-.1-.35-.28-.44-.49-.42-1.01.47-2,1.39-1.53.19.1.35.28.44.49Z"/>
                <path class="cls-1" d="m222.15,360.29c.42,1.02-.47,2-1.39,1.53-.19-.1-.35-.28-.44-.49-.42-1.01.47-2,1.39-1.53.19.1.35.27.44.49Z"/>
                <path class="cls-1" d="m244.03,422.93c.42,1.01-.47,2-1.39,1.53-.19-.1-.35-.28-.44-.49-.42-1.01.47-2,1.39-1.53.19.1.35.28.44.49Z"/>
                <path class="cls-1" d="m311.9,464.95c.42,1.01-.47,2-1.39,1.53-.19-.1-.35-.28-.44-.49-.42-1.01.47-2,1.39-1.53.19.1.35.28.44.49Z"/>
                <path class="cls-1" d="m382.82,483.4c.42,1.01-.47,2-1.39,1.53-.19-.1-.35-.28-.44-.49-.42-1.01.47-2,1.39-1.53.19.1.35.28.44.49Z"/>
                <path class="cls-1" d="m437.02,505.08c.42,1.01-.47,2-1.39,1.53-.19-.1-.35-.27-.44-.49-.42-1.01.47-2,1.39-1.53.19.1.35.28.44.49Z"/>
                <path class="cls-1" d="m450.93,575.45c.42,1.01-.47,2-1.39,1.53-.19-.1-.35-.28-.44-.49-.42-1.01.47-2,1.39-1.53.19.1.35.27.44.49Z"/>
                <path class="cls-1" d="m490.18,614.59c.42,1.01-.47,2-1.39,1.53-.19-.1-.35-.28-.44-.49-.42-1.02.47-2,1.39-1.53.19.1.35.28.44.49Z"/>
                <path class="cls-1" d="m575.79,640.74c.42,1.01-.47,2-1.39,1.53-.19-.1-.35-.28-.44-.49-.42-1.01.47-2,1.39-1.53.19.1.35.28.44.49Z"/>
                <path class="cls-1" d="m608.25,658.59c.42,1.01-.47,2-1.39,1.53-.19-.1-.35-.28-.44-.49-.42-1.01.47-2,1.39-1.53.19.1.35.28.44.49Z"/>
                <path class="cls-1" d="m671.23,599.03c.42,1.01-.47,2-1.39,1.53-.19-.1-.35-.28-.44-.49-.42-1.01.47-2,1.39-1.53.19.1.35.28.44.49Z"/>
                <path class="cls-1" d="m657.5,556.23c.42,1.02-.47,2-1.39,1.53-.19-.1-.35-.28-.44-.49-.42-1.01.47-2,1.39-1.53.19.1.35.28.44.49Z"/>
                <path class="cls-1" d="m663.42,522.78c.42,1.01-.47,2-1.39,1.53-.19-.1-.35-.28-.44-.49-.42-1.01.47-2,1.39-1.53.19.1.35.28.44.49Z"/>
                <path class="cls-1" d="m674.3,468.83c.42,1.01-.47,2-1.39,1.53-.19-.1-.35-.28-.44-.49-.42-1.01.47-2,1.39-1.53.19.1.35.28.44.49Z"/>
                <path class="cls-1" d="m498.52,461.29c.42,1.01-.47,2-1.39,1.53-.19-.1-.35-.28-.44-.49-.42-1.01.47-2,1.39-1.53.19.1.35.28.44.49Z"/>
                <path class="cls-1" d="m551.76,605.37c.42,1.01-.47,2-1.39,1.53-.19-.1-.35-.28-.44-.49-.42-1.01.47-2,1.39-1.53.19.1.35.28.44.49Z"/>
                <path class="cls-1" d="m364.2,651.77c.42,1.01-.47,2-1.39,1.53-.19-.1-.35-.28-.44-.49-.42-1.01.47-2,1.39-1.53.19.1.35.28.44.49Z"/>
                <path class="cls-1" d="m186.59,633.1c.42,1.01-.47,2-1.39,1.53-.19-.1-.35-.28-.44-.49-.42-1.01.47-2,1.39-1.53.19.1.35.28.44.49Z"/>
                <path class="cls-1" d="m268.99,447.05c.42,1.01-.47,2-1.39,1.53-.19-.1-.35-.28-.44-.49-.42-1.01.47-2,1.39-1.53.19.1.35.28.44.49Z"/>
                <path class="cls-1" d="m168.07,505.87c.42,1.02-.47,2-1.39,1.53-.19-.1-.35-.28-.44-.49-.42-1.01.47-2,1.39-1.53.19.1.35.28.44.49Z"/>
                <path class="cls-1" d="m168.25,641.78c.42,1.01-.47,2-1.39,1.53-.19-.1-.35-.28-.44-.49-.42-1.01.47-2,1.39-1.53.19.1.35.28.44.49Z"/>
                <path class="cls-1" d="m121.33,623.55c.42,1.01-.47,2-1.39,1.53-.19-.1-.35-.28-.44-.49-.42-1.01.47-2,1.39-1.53.19.1.35.28.44.49Z"/>
                <path class="cls-1" d="m125.02,638.52c.42,1.01-.47,2-1.39,1.53-.19-.1-.35-.28-.44-.49-.42-1.01.47-2,1.39-1.53.19.1.35.28.44.49Z"/>
                <path class="cls-1" d="m170.9,533.57c.42,1.01-.47,2-1.39,1.53-.19-.1-.35-.27-.44-.49-.42-1.01.47-2,1.39-1.53.19.1.35.28.44.49Z"/>
                <path class="cls-1" d="m102.43,674.03c.42,1.01-.47,2-1.39,1.53-.19-.1-.35-.28-.44-.49-.42-1.01.47-2,1.39-1.53.19.1.35.28.44.49Z"/>
                <path class="cls-1" d="m118.09,689.57c.42,1.01-.47,2-1.39,1.53-.19-.1-.35-.28-.44-.49-.42-1.01.47-2,1.39-1.53.19.1.35.28.44.49Z"/>
                <path class="cls-1" d="m62.23,420.7c.42,1.01-.47,2-1.39,1.53-.19-.1-.35-.28-.44-.49-.42-1.01.47-2,1.39-1.53.19.1.35.28.44.49Z"/>
                <path class="cls-1" d="m79.04,367.14c.42,1.01-.47,2-1.39,1.53-.19-.1-.35-.28-.44-.49-.42-1.01.47-2,1.39-1.53.19.1.35.28.44.49Z"/>
                <path class="cls-1" d="m66.33,545.34c.42,1.01-.47,2-1.39,1.53-.19-.1-.35-.28-.44-.49-.42-1.01.47-2,1.39-1.53.19.1.35.28.44.49Z"/>
                <path class="cls-1" d="m76.48,712.23c.42,1.01-.47,2-1.39,1.53-.19-.1-.35-.27-.44-.49-.42-1.01.47-2,1.39-1.53.19.1.35.28.44.49Z"/>
                <path class="cls-1" d="m123.71,772.68c.42,1.01-.47,2-1.39,1.53-.19-.1-.35-.27-.44-.49-.42-1.01.47-2,1.39-1.53.19.1.35.28.44.49Z"/>
                <path class="cls-1" d="m294.19,616.48c.42,1.01-.47,2-1.39,1.53-.19-.1-.35-.28-.44-.49-.42-1.01.47-2,1.39-1.53.19.1.35.28.44.49Z"/>
                <path class="cls-1" d="m306.18,583.77c.42,1.01-.47,2-1.39,1.53-.19-.1-.35-.28-.44-.49-.42-1.01.47-2,1.39-1.53.19.1.35.27.44.49Z"/>
                <path class="cls-1" d="m241,740.98c.42,1.01-.47,2-1.39,1.53-.19-.1-.35-.28-.44-.49-.42-1.01.47-2,1.39-1.53.19.1.35.28.44.49Z"/>
                <path class="cls-1" d="m156.9,781.9c.42,1.01-.47,2-1.39,1.53-.19-.1-.35-.28-.44-.49-.42-1.01.47-2,1.39-1.53.19.1.35.27.44.49Z"/>
                <path class="cls-1" d="m100.06,810.34c.42,1.01-.47,2-1.39,1.53-.19-.1-.35-.28-.44-.49-.42-1.01.47-2,1.39-1.53.19.1.35.28.44.49Z"/>
                <path class="cls-1" d="m196.91,797.18c.42,1.01-.47,2-1.39,1.53-.19-.1-.35-.28-.44-.49-.42-1.01.47-2,1.39-1.53.19.1.35.28.44.49Z"/>
                <path class="cls-1" d="m354.95,746.4c.42,1.01-.47,2-1.39,1.53-.19-.1-.35-.28-.44-.49-.42-1.01.47-2,1.39-1.53.19.1.35.28.44.49Z"/>
                <path class="cls-1" d="m341.38,785.48c.42,1.01-.47,2-1.39,1.53-.19-.1-.35-.28-.44-.49-.42-1.01.47-2,1.39-1.53.19.1.35.28.44.49Z"/>
                <path class="cls-1" d="m230.7,464.59c.42,1.01-.47,2-1.39,1.53-.19-.1-.35-.27-.44-.49-.42-1.01.47-2,1.39-1.53.19.1.35.28.44.49Z"/>
                <path class="cls-1" d="m320.09,507.64c.42,1.01-.47,2-1.39,1.53-.19-.1-.35-.28-.44-.49-.42-1.01.47-2,1.39-1.53.19.1.35.28.44.49Z"/>
                <path class="cls-1" d="m216.54,483.32c.42,1.01-.47,2-1.39,1.53-.19-.1-.35-.27-.44-.49-.42-1.01.47-2,1.39-1.53.19.1.35.28.44.49Z"/>
                <path class="cls-1" d="m51.05,444.86c.42,1.01-.47,2-1.39,1.53-.19-.1-.35-.28-.44-.49-.42-1.01.47-2,1.39-1.53.19.1.35.28.44.49Z"/>
                <path class="cls-1" d="m22.13,703.2c.42,1.01-.47,2-1.39,1.53-.19-.1-.35-.28-.44-.49-.42-1.01.47-2,1.39-1.53.19.1.35.27.44.49Z"/>
                <path class="cls-1" d="m115.04,719.27c.42,1.01-.47,2-1.39,1.53-.19-.1-.35-.28-.44-.49-.42-1.01.47-2,1.39-1.53.19.1.35.27.44.49Z"/>
                <path class="cls-1" d="m131.85,634.43c.42,1.01-.47,2-1.39,1.53-.19-.1-.35-.28-.44-.49-.42-1.01.47-2,1.39-1.53.19.1.35.28.44.49Z"/>
                <path class="cls-1" d="m514.82,799.6c.42,1.01-.47,2-1.39,1.53-.19-.1-.35-.27-.44-.49-.42-1.02.47-2,1.39-1.53.19.1.35.28.44.49Z"/>
                <path class="cls-1" d="m583.35,728.43c.42,1.01-.47,2-1.39,1.53-.19-.1-.35-.28-.44-.49-.42-1.01.47-2,1.39-1.53.19.1.35.28.44.49Z"/>
                <path class="cls-1" d="m461.56,799.76c.42,1.02-.47,2-1.39,1.53-.19-.1-.35-.28-.44-.49-.42-1.01.47-2,1.39-1.53.19.1.35.27.44.49Z"/>
                <path class="cls-1" d="m506.52,676.86c.42,1.01-.47,2-1.39,1.53-.19-.1-.35-.28-.44-.49-.42-1.01.47-2,1.39-1.53.19.1.35.27.44.49Z"/>
                <path class="cls-1" d="m607.22,767.68c.42,1.02-.47,2-1.39,1.53-.19-.1-.35-.28-.44-.49-.42-1.01.47-2,1.39-1.53.19.1.35.27.44.49Z"/>
                <path class="cls-1" d="m484.78,698.33c.42,1.01-.47,2-1.39,1.53-.19-.1-.35-.28-.44-.49-.42-1.01.47-2,1.39-1.53.19.1.35.28.44.49Z"/>
                <path class="cls-1" d="m711.06,758.28c.42,1.01-.47,2-1.39,1.53-.19-.1-.35-.28-.44-.49-.42-1.01.47-2,1.39-1.53.19.1.35.28.44.49Z"/>
                <path class="cls-1" d="m756.04,252.86c.42,1.01-.47,2-1.39,1.53-.19-.1-.35-.28-.44-.49-.42-1.01.47-2,1.39-1.53.19.1.35.28.44.49Z"/>
                <path class="cls-1" d="m805.38,317.11c.42,1.01-.47,2-1.39,1.53-.19-.1-.35-.27-.44-.49-.42-1.02.47-2,1.39-1.53.19.1.35.28.44.49Z"/>
                <path class="cls-1" d="m498.28,189.06c.42,1.01-.47,2-1.39,1.53-.19-.1-.35-.28-.44-.49-.42-1.02.47-2,1.39-1.53.19.1.35.28.44.49Z"/>
                <path class="cls-1" d="m370.1,315.27c.42,1.01-.47,2-1.39,1.53-.19-.1-.35-.28-.44-.49-.42-1.01.47-2,1.39-1.53.19.1.35.28.44.49Z"/>
                <path class="cls-1" d="m402.34,389.22c.42,1.01-.47,2-1.39,1.53-.19-.1-.35-.28-.44-.49-.42-1.01.47-2,1.39-1.53.19.1.35.28.44.49Z"/>
                <path class="cls-1" d="m605.37,182.85c.42,1.01-.47,2-1.39,1.53-.19-.1-.35-.28-.44-.49-.42-1.01.47-2,1.39-1.53.19.1.35.28.44.49Z"/>
                <path class="cls-1" d="m564.28,310.61c.42,1.01-.47,2-1.39,1.53-.19-.1-.35-.27-.44-.49-.42-1.01.47-2,1.39-1.53.19.1.35.28.44.49Z"/>
                <path class="cls-1" d="m391.16,241.53c.42,1.01-.47,2-1.39,1.53-.19-.1-.35-.27-.44-.49-.42-1.02.47-2,1.39-1.53.19.1.35.28.44.49Z"/>
                <path class="cls-1" d="m332.57,270.86c.42,1.01-.47,2-1.39,1.53-.19-.1-.35-.28-.44-.49-.42-1.01.47-2,1.39-1.53.19.1.35.28.44.49Z"/>
                <path class="cls-1" d="m264.03,121.43c.42,1.01-.47,2-1.39,1.53-.19-.1-.35-.28-.44-.49-.42-1.01.47-2,1.39-1.53.19.1.35.28.44.49Z"/>
                <path class="cls-1" d="m312.62,148.53c.42,1.01-.47,2-1.39,1.53-.19-.1-.35-.28-.44-.49-.42-1.01.47-2,1.39-1.53.19.1.35.28.44.49Z"/>
                <path class="cls-1" d="m248.4,219.73c.42,1.01-.47,2-1.39,1.53-.19-.1-.35-.28-.44-.49-.42-1.01.47-2,1.39-1.53.19.1.35.28.44.49Z"/>
                <path class="cls-1" d="m234.73,218.02c.42,1.01-.47,2-1.39,1.53-.19-.1-.35-.28-.44-.49-.42-1.01.47-2,1.39-1.53.19.1.35.28.44.49Z"/>
                <path class="cls-1" d="m200.99,133.22c.42,1.02-.47,2-1.39,1.53-.19-.1-.35-.28-.44-.49-.42-1.01.47-2,1.39-1.53.19.1.35.28.44.49Z"/>
                <path class="cls-1" d="m278.6,221.87c.42,1.01-.47,2-1.39,1.53-.19-.1-.35-.28-.44-.49-.42-1.02.47-2,1.39-1.53.19.1.35.28.44.49Z"/>
                <path class="cls-1" d="m247.93,208.67c.42,1.01-.47,2-1.39,1.53-.19-.1-.35-.28-.44-.49-.42-1.01.47-2,1.39-1.53.19.1.35.28.44.49Z"/>
                <path class="cls-1" d="m275.6,206.71c.42,1.01-.47,2-1.39,1.53-.19-.1-.35-.28-.44-.49-.42-1.01.47-2,1.39-1.53.19.1.35.28.44.49Z"/>
                <path class="cls-1" d="m180.51,108.12c.42,1.01-.47,2-1.39,1.53-.19-.1-.35-.27-.44-.49-.42-1.01.47-2,1.39-1.53.19.1.35.28.44.49Z"/>
                <path class="cls-1" d="m185.62,136.75c.42,1.01-.47,2-1.39,1.53-.19-.1-.35-.28-.44-.49-.42-1.01.47-2,1.39-1.53.19.1.35.27.44.49Z"/>
                <path class="cls-1" d="m72.18,215.28c.42,1.02-.47,2-1.39,1.53-.19-.1-.35-.28-.44-.49-.42-1.01.47-2,1.39-1.53.19.1.35.27.44.49Z"/>
                <path class="cls-1" d="m144.98,277.26c.42,1.01-.47,2-1.39,1.53-.19-.1-.35-.28-.44-.49-.42-1.01.47-2,1.39-1.53.19.1.35.28.44.49Z"/>
                <path class="cls-1" d="m160.86,212.65c.42,1.01-.47,2-1.39,1.53-.19-.1-.35-.27-.44-.49-.42-1.01.47-2,1.39-1.53.19.1.35.28.44.49Z"/>
                <path class="cls-1" d="m144.83,193.61c.42,1.01-.47,2-1.39,1.53-.19-.1-.35-.28-.44-.49-.42-1.01.47-2,1.39-1.53.19.1.35.28.44.49Z"/>
                <path class="cls-1" d="m142.14,258.06c.42,1.01-.47,2-1.39,1.53-.19-.1-.35-.28-.44-.49-.42-1.01.47-2,1.39-1.53.19.1.35.27.44.49Z"/>
                <path class="cls-1" d="m66.86,235.31c.42,1.01-.47,2-1.39,1.53-.19-.1-.35-.27-.44-.49-.42-1.02.47-2,1.39-1.53.19.1.35.28.44.49Z"/>
                <path class="cls-1" d="m82.9,137.82c.42,1.01-.47,2-1.39,1.53-.19-.1-.35-.27-.44-.49-.42-1.01.47-2,1.39-1.53.19.1.35.28.44.49Z"/>
                <path class="cls-1" d="m104.16,193.63c.42,1.01-.47,2-1.39,1.53-.19-.1-.35-.28-.44-.49-.42-1.01.47-2,1.39-1.53.19.1.35.28.44.49Z"/>
                <path class="cls-1" d="m22.53,142.22c.42,1.01-.47,2-1.39,1.53-.19-.1-.35-.28-.44-.49-.42-1.01.47-2,1.39-1.53.19.1.35.27.44.49Z"/>
                <path class="cls-1" d="m41.28,91.72c.42,1.01-.47,2-1.39,1.53-.19-.1-.35-.27-.44-.49-.42-1.01.47-2,1.39-1.53.19.1.35.28.44.49Z"/>
                <path class="cls-1" d="m33.49,148.46c.42,1.01-.47,2-1.39,1.53-.19-.1-.35-.27-.44-.49-.42-1.01.47-2,1.39-1.53.19.1.35.28.44.49Z"/>
                <path class="cls-1" d="m4.92,262.49c.42,1.01-.47,2-1.39,1.53-.19-.1-.35-.28-.44-.49-.42-1.01.47-2,1.39-1.53.19.1.35.28.44.49Z"/>
                <path class="cls-1" d="m134.43,219.54c.42,1.01-.47,2-1.39,1.53-.19-.1-.35-.27-.44-.49-.42-1.01.47-2,1.39-1.53.19.1.35.28.44.49Z"/>
                <path class="cls-1" d="m127.36,28.68c.42,1.01-.47,2-1.39,1.53-.19-.1-.35-.28-.44-.49-.42-1.01.47-2,1.39-1.53.19.1.35.28.44.49Z"/>
                <path class="cls-1" d="m203.24,53.54c.42,1.01-.47,2-1.39,1.53-.19-.1-.35-.28-.44-.49-.42-1.01.47-2,1.39-1.53.19.1.35.27.44.49Z"/>
                <path class="cls-1" d="m200.11,73.06c.42,1.02-.47,2-1.39,1.53-.19-.1-.35-.28-.44-.49-.42-1.01.47-2,1.39-1.53.19.1.35.28.44.49Z"/>
                <path class="cls-1" d="m154.49,46.35c.42,1.01-.47,2-1.39,1.53-.19-.1-.35-.28-.44-.49-.42-1.01.47-2,1.39-1.53.19.1.35.27.44.49Z"/>
                <path class="cls-1" d="m145.7,141.76c.42,1.01-.47,2-1.39,1.53-.19-.1-.35-.28-.44-.49-.42-1.01.47-2,1.39-1.53.19.1.35.28.44.49Z"/>
                <path class="cls-1" d="m19.68,172.58c.42,1.01-.47,2-1.39,1.53-.19-.1-.35-.28-.44-.49-.42-1.01.47-2,1.39-1.53.19.1.35.28.44.49Z"/>
                <path class="cls-1" d="m28.35,71.13c.42,1.01-.47,2-1.39,1.53-.19-.1-.35-.28-.44-.49-.42-1.01.47-2,1.39-1.53.19.1.35.27.44.49Z"/>
                <path class="cls-1" d="m20.73,63.3c.42,1.02-.47,2-1.39,1.53-.19-.1-.35-.28-.44-.49-.42-1.01.47-2,1.39-1.53.19.1.35.27.44.49Z"/>
                <path class="cls-1" d="m67.43,319.72c.42,1.01-.47,2-1.39,1.53-.19-.1-.35-.28-.44-.49-.42-1.01.47-2,1.39-1.53.19.1.35.28.44.49Z"/>
                <path class="cls-1" d="m75.9,386.17c.42,1.01-.47,2-1.39,1.53-.19-.1-.35-.28-.44-.49-.42-1.02.47-2,1.39-1.53.19.1.35.28.44.49Z"/>
                <path class="cls-1" d="m119.24,219.34c.42,1.02-.47,2-1.39,1.53-.19-.1-.35-.28-.44-.49-.42-1.01.47-2,1.39-1.53.19.1.35.27.44.49Z"/>
                <path class="cls-1" d="m237.18,114.51c.42,1.01-.47,2-1.39,1.53-.19-.1-.35-.28-.44-.49-.42-1.01.47-2,1.39-1.53.19.1.35.28.44.49Z"/>
                <path class="cls-1" d="m402.86,74.49c.42,1.01-.47,2-1.39,1.53-.19-.1-.35-.28-.44-.49-.42-1.01.47-2,1.39-1.53.19.1.35.27.44.49Z"/>
                <path class="cls-1" d="m391.53,102.16c.42,1.02-.47,2-1.39,1.53-.19-.1-.35-.28-.44-.49-.42-1.01.47-2,1.39-1.53.19.1.35.27.44.49Z"/>
                <path class="cls-1" d="m422.88,186.08c.42,1.01-.47,2-1.39,1.53-.19-.1-.35-.28-.44-.49-.42-1.01.47-2,1.39-1.53.19.1.35.28.44.49Z"/>
                <path class="cls-1" d="m391.41,152.59c.42,1.01-.47,2-1.39,1.53-.19-.1-.35-.28-.44-.49-.42-1.01.47-2,1.39-1.53.19.1.35.28.44.49Z"/>
                <path class="cls-1" d="m424.47,119.84c.42,1.01-.47,2-1.39,1.53-.19-.1-.35-.28-.44-.49-.42-1.02.47-2,1.39-1.53.19.1.35.28.44.49Z"/>
                <path class="cls-1" d="m585.19,79.93c.42,1.01-.47,2-1.39,1.53-.19-.1-.35-.28-.44-.49-.42-1.01.47-2,1.39-1.53.19.1.35.28.44.49Z"/>
                <path class="cls-1" d="m503.67,129.54c.42,1.02-.47,2-1.39,1.53-.19-.1-.35-.28-.44-.49-.42-1.01.47-2,1.39-1.53.19.1.35.28.44.49Z"/>
                <path class="cls-1" d="m660.56,159.62c.42,1.01-.47,2-1.39,1.53-.19-.1-.35-.28-.44-.49-.42-1.01.47-2,1.39-1.53.19.1.35.27.44.49Z"/>
                <path class="cls-1" d="m652.68,224.75c.42,1.01-.47,2-1.39,1.53-.19-.1-.35-.28-.44-.49-.42-1.01.47-2,1.39-1.53.19.1.35.28.44.49Z"/>
                <path class="cls-1" d="m791.1,201.76c.42,1.01-.47,2-1.39,1.53-.19-.1-.35-.28-.44-.49-.42-1.01.47-2,1.39-1.53.19.1.35.28.44.49Z"/>
                <path class="cls-1" d="m705.4,77.6c.42,1.01-.47,2-1.39,1.53-.19-.1-.35-.27-.44-.49-.42-1.02.47-2,1.39-1.53.19.1.35.28.44.49Z"/>
                <path class="cls-1" d="m772.37,158.75c.42,1.01-.47,2-1.39,1.53-.19-.1-.35-.28-.44-.49-.42-1.01.47-2,1.39-1.53.19.1.35.28.44.49Z"/>
                <path class="cls-1" d="m755.87,180.54c.42,1.01-.47,2-1.39,1.53-.19-.1-.35-.28-.44-.49-.42-1.01.47-2,1.39-1.53.19.1.35.28.44.49Z"/>
                <path class="cls-1" d="m731.89,207.67c.42,1.01-.47,2-1.39,1.53-.19-.1-.35-.28-.44-.49-.42-1.01.47-2,1.39-1.53.19.1.35.28.44.49Z"/>
                <path class="cls-1" d="m711.03,138.76c.42,1.01-.47,2-1.39,1.53-.19-.1-.35-.28-.44-.49-.42-1.01.47-2,1.39-1.53.19.1.35.28.44.49Z"/>
                <path class="cls-1" d="m769.19,49.43c.42,1.01-.47,2-1.39,1.53-.19-.1-.35-.28-.44-.49-.42-1.01.47-2,1.39-1.53.19.1.35.28.44.49Z"/>
                <path class="cls-1" d="m797.8,325.51c.42,1.01-.47,2-1.39,1.53-.19-.1-.35-.28-.44-.49-.42-1.01.47-2,1.39-1.53.19.1.35.28.44.49Z"/>
                <path class="cls-1" d="m790.09,376.4c.42,1.01-.47,2-1.39,1.53-.19-.1-.35-.28-.44-.49-.42-1.01.47-2,1.39-1.53.19.1.35.27.44.49Z"/>
                <path class="cls-1" d="m511.22,256.52c.42,1.01-.47,2-1.39,1.53-.19-.1-.35-.28-.44-.49-.42-1.01.47-2,1.39-1.53.19.1.35.28.44.49Z"/>
                <path class="cls-1" d="m608.56,306.65c.42,1.01-.47,2-1.39,1.53-.19-.1-.35-.28-.44-.49-.42-1.01.47-2,1.39-1.53.19.1.35.27.44.49Z"/>
                <path class="cls-1" d="m441.54,293.84c.42,1.01-.47,2-1.39,1.53-.19-.1-.35-.27-.44-.49-.42-1.02.47-2,1.39-1.53.19.1.35.28.44.49Z"/>
                <path class="cls-1" d="m559.74,301.17c.42,1.01-.47,2-1.39,1.53-.19-.1-.35-.28-.44-.49-.42-1.01.47-2,1.39-1.53.19.1.35.28.44.49Z"/>
                <path class="cls-1" d="m236.12,384.42c.42,1.01-.47,2-1.39,1.53-.19-.1-.35-.28-.44-.49-.42-1.01.47-2,1.39-1.53.19.1.35.27.44.49Z"/>
                <path class="cls-1" d="m285.19,402.09c.42,1.01-.47,2-1.39,1.53-.19-.1-.35-.27-.44-.49-.42-1.02.47-2,1.39-1.53.19.1.35.28.44.49Z"/>
                <path class="cls-1" d="m180.8,422.8c.42,1.01-.47,2-1.39,1.53-.19-.1-.35-.27-.44-.49-.42-1.01.47-2,1.39-1.53.19.1.35.28.44.49Z"/>
                <path class="cls-1" d="m164.64,415.5c.42,1.01-.47,2-1.39,1.53-.19-.1-.35-.27-.44-.49-.42-1.01.47-2,1.39-1.53.19.1.35.28.44.49Z"/>
                <path class="cls-1" d="m105.46,500.25c.42,1.01-.47,2-1.39,1.53-.19-.1-.35-.28-.44-.49-.42-1.01.47-2,1.39-1.53.19.1.35.28.44.49Z"/>
                <path class="cls-1" d="m98.13,646.41c.42,1.01-.47,2-1.39,1.53-.19-.1-.35-.28-.44-.49-.42-1.01.47-2,1.39-1.53.19.1.35.28.44.49Z"/>
                <path class="cls-1" d="m87.3,602.99c.42,1.01-.47,2-1.39,1.53-.19-.1-.35-.28-.44-.49-.42-1.01.47-2,1.39-1.53.19.1.35.27.44.49Z"/>
                <path class="cls-1" d="m12.3,751.61c.42,1.01-.47,2-1.39,1.53-.19-.1-.35-.27-.44-.49-.42-1.01.47-2,1.39-1.53.19.1.35.28.44.49Z"/>
                <path class="cls-1" d="m26.24,693.71c.42,1.01-.47,2-1.39,1.53-.19-.1-.35-.28-.44-.49-.42-1.01.47-2,1.39-1.53.19.1.35.28.44.49Z"/>
                <path class="cls-1" d="m24.24,774.68c.42,1.01-.47,2-1.39,1.53-.19-.1-.35-.28-.44-.49-.42-1.01.47-2,1.39-1.53.19.1.35.28.44.49Z"/>
                <path class="cls-1" d="m30.15,773.32c.42,1.02-.47,2-1.39,1.53-.19-.1-.35-.28-.44-.49-.42-1.01.47-2,1.39-1.53.19.1.35.27.44.49Z"/>
                <path class="cls-1" d="m259.48,729.83c.42,1.01-.47,2-1.39,1.53-.19-.1-.35-.28-.44-.49-.42-1.01.47-2,1.39-1.53.19.1.35.27.44.49Z"/>
                <path class="cls-1" d="m260.71,719.18c.42,1.01-.47,2-1.39,1.53-.19-.1-.35-.28-.44-.49-.42-1.01.47-2,1.39-1.53.19.1.35.27.44.49Z"/>
                <path class="cls-1" d="m396.55,715.88c.42,1.01-.47,2-1.39,1.53-.19-.1-.35-.28-.44-.49-.42-1.01.47-2,1.39-1.53.19.1.35.28.44.49Z"/>
                <path class="cls-1" d="m434.59,783.72c.42,1.01-.47,2-1.39,1.53-.19-.1-.35-.28-.44-.49-.42-1.02.47-2,1.39-1.53.19.1.35.28.44.49Z"/>
                <path class="cls-1" d="m291.13,792.91c.42,1.01-.47,2-1.39,1.53-.19-.1-.35-.28-.44-.49-.42-1.01.47-2,1.39-1.53.19.1.35.28.44.49Z"/>
                <path class="cls-1" d="m232.08,767.13c.42,1.01-.47,2-1.39,1.53-.19-.1-.35-.28-.44-.49-.42-1.01.47-2,1.39-1.53.19.1.35.28.44.49Z"/>
                <path class="cls-1" d="m301.54,696.58c.42,1.02-.47,2-1.39,1.53-.19-.1-.35-.28-.44-.49-.42-1.01.47-2,1.39-1.53.19.1.35.28.44.49Z"/>
                <path class="cls-1" d="m287.38,632.04c.42,1.01-.47,2-1.39,1.53-.19-.1-.35-.28-.44-.49-.42-1.01.47-2,1.39-1.53.19.1.35.28.44.49Z"/>
                <path class="cls-1" d="m359.78,643.17c.42,1.01-.47,2-1.39,1.53-.19-.1-.35-.27-.44-.49-.42-1.02.47-2,1.39-1.53.19.1.35.28.44.49Z"/>
                <path class="cls-1" d="m273.13,719c.42,1.02-.47,2-1.39,1.53-.19-.1-.35-.28-.44-.49-.42-1.01.47-2,1.39-1.53.19.1.35.28.44.49Z"/>
                <path class="cls-1" d="m190.39,668.05c.42,1.01-.47,2-1.39,1.53-.19-.1-.35-.28-.44-.49-.42-1.01.47-2,1.39-1.53.19.1.35.28.44.49Z"/>
                <path class="cls-1" d="m281.9,685.25c.42,1.01-.47,2-1.39,1.53-.19-.1-.35-.28-.44-.49-.42-1.01.47-2,1.39-1.53.19.1.35.28.44.49Z"/>
                <path class="cls-1" d="m193.43,625.02c.42,1.01-.47,2-1.39,1.53-.19-.1-.35-.28-.44-.49-.42-1.02.47-2,1.39-1.53.19.1.35.28.44.49Z"/>
                <path class="cls-1" d="m267.2,518.99c.42,1.01-.47,2-1.39,1.53-.19-.1-.35-.27-.44-.49-.42-1.01.47-2,1.39-1.53.19.1.35.28.44.49Z"/>
                <path class="cls-1" d="m297.88,577.2c.42,1.01-.47,2-1.39,1.53-.19-.1-.35-.28-.44-.49-.42-1.01.47-2,1.39-1.53.19.1.35.28.44.49Z"/>
                <path class="cls-1" d="m268.95,495.49c.42,1.01-.47,2-1.39,1.53-.19-.1-.35-.28-.44-.49-.42-1.02.47-2,1.39-1.53.19.1.35.28.44.49Z"/>
                <path class="cls-1" d="m204.63,618.89c.42,1.01-.47,2-1.39,1.53-.19-.1-.35-.27-.44-.49-.42-1.01.47-2,1.39-1.53.19.1.35.28.44.49Z"/>
                <path class="cls-1" d="m206.92,639.08c.42,1.01-.47,2-1.39,1.53-.19-.1-.35-.28-.44-.49-.42-1.01.47-2,1.39-1.53.19.1.35.28.44.49Z"/>
                <path class="cls-1" d="m217.06,587.44c.42,1.01-.47,2-1.39,1.53-.19-.1-.35-.27-.44-.49-.42-1.02.47-2,1.39-1.53.19.1.35.28.44.49Z"/>
                <path class="cls-1" d="m223.13,587.15c.42,1.01-.47,2-1.39,1.53-.19-.1-.35-.28-.44-.49-.42-1.01.47-2,1.39-1.53.19.1.35.27.44.49Z"/>
                <path class="cls-1" d="m215.79,560.66c.42,1.01-.47,2-1.39,1.53-.19-.1-.35-.28-.44-.49-.42-1.01.47-2,1.39-1.53.19.1.35.28.44.49Z"/>
                <path class="cls-1" d="m264.12,583.04c.42,1.01-.47,2-1.39,1.53-.19-.1-.35-.28-.44-.49-.42-1.01.47-2,1.39-1.53.19.1.35.28.44.49Z"/>
                <path class="cls-1" d="m247.55,558.73c.42,1.01-.47,2-1.39,1.53-.19-.1-.35-.28-.44-.49-.42-1.01.47-2,1.39-1.53.19.1.35.28.44.49Z"/>
                <path class="cls-1" d="m207.87,570.97c.42,1.01-.47,2-1.39,1.53-.19-.1-.35-.27-.44-.49-.42-1.02.47-2,1.39-1.53.19.1.35.28.44.49Z"/>
                <path class="cls-1" d="m142.36,607.16c.42,1.02-.47,2-1.39,1.53-.19-.1-.35-.28-.44-.49-.42-1.01.47-2,1.39-1.53.19.1.35.27.44.49Z"/>
                <path class="cls-1" d="m110.92,587.37c.42,1.01-.47,2-1.39,1.53-.19-.1-.35-.28-.44-.49-.42-1.01.47-2,1.39-1.53.19.1.35.28.44.49Z"/>
                <path class="cls-1" d="m108.78,553.54c.42,1.01-.47,2-1.39,1.53-.19-.1-.35-.28-.44-.49-.42-1.01.47-2,1.39-1.53.19.1.35.28.44.49Z"/>
                <path class="cls-1" d="m120.59,556.17c.42,1.01-.47,2-1.39,1.53-.19-.1-.35-.28-.44-.49-.42-1.01.47-2,1.39-1.53.19.1.35.27.44.49Z"/>
                <path class="cls-1" d="m91.18,554.35c.42,1.01-.47,2-1.39,1.53-.19-.1-.35-.28-.44-.49-.42-1.02.47-2,1.39-1.53.19.1.35.28.44.49Z"/>
                <path class="cls-1" d="m34.5,501.38c.42,1.01-.47,2-1.39,1.53-.19-.1-.35-.28-.44-.49-.42-1.01.47-2,1.39-1.53.19.1.35.28.44.49Z"/>
                <path class="cls-1" d="m28.89,492.19c.42,1.01-.47,2-1.39,1.53-.19-.1-.35-.27-.44-.49-.42-1.02.47-2,1.39-1.53.19.1.35.28.44.49Z"/>
                <path class="cls-1" d="m2.57,542.86c.42,1.01-.47,2-1.39,1.53-.19-.1-.35-.27-.44-.49-.42-1.01.47-2,1.39-1.53.19.1.35.28.44.49Z"/>
                <path class="cls-1" d="m10.75,607.73c.42,1.01-.47,2-1.39,1.53-.19-.1-.35-.28-.44-.49-.42-1.01.47-2,1.39-1.53.19.1.35.27.44.49Z"/>
                <path class="cls-1" d="m135.78,741.11c.42,1.01-.47,2-1.39,1.53-.19-.1-.35-.28-.44-.49-.42-1.01.47-2,1.39-1.53.19.1.35.28.44.49Z"/>
                <path class="cls-1" d="m426.11,645.49c.42,1.02-.47,2-1.39,1.53-.19-.1-.35-.28-.44-.49-.42-1.01.47-2,1.39-1.53.19.1.35.28.44.49Z"/>
                <path class="cls-1" d="m512.39,566.41c.42,1.01-.47,2-1.39,1.53-.19-.1-.35-.28-.44-.49-.42-1.01.47-2,1.39-1.53.19.1.35.28.44.49Z"/>
                <path class="cls-1" d="m571.43,533.23c.42,1.01-.47,2-1.39,1.53-.19-.1-.35-.27-.44-.49-.42-1.02.47-2,1.39-1.53.19.1.35.28.44.49Z"/>
                <path class="cls-1" d="m594.63,469.05c.42,1.01-.47,2-1.39,1.53-.19-.1-.35-.28-.44-.49-.42-1.01.47-2,1.39-1.53.19.1.35.28.44.49Z"/>
                <path class="cls-1" d="m596.66,419.12c.42,1.01-.47,2-1.39,1.53-.19-.1-.35-.28-.44-.49-.42-1.01.47-2,1.39-1.53.19.1.35.27.44.49Z"/>
                <path class="cls-1" d="m625.81,454.27c.42,1.01-.47,2-1.39,1.53-.19-.1-.35-.28-.44-.49-.42-1.01.47-2,1.39-1.53.19.1.35.28.44.49Z"/>
                <path class="cls-1" d="m512.18,433.66c.42,1.01-.47,2-1.39,1.53-.19-.1-.35-.27-.44-.49-.42-1.01.47-2,1.39-1.53.19.1.35.28.44.49Z"/>
                <path class="cls-1" d="m398.08,418.34c.42,1.02-.47,2-1.39,1.53-.19-.1-.35-.28-.44-.49-.42-1.01.47-2,1.39-1.53.19.1.35.27.44.49Z"/>
                <path class="cls-1" d="m371.76,399.85c.42,1.01-.47,2-1.39,1.53-.19-.1-.35-.28-.44-.49-.42-1.01.47-2,1.39-1.53.19.1.35.28.44.49Z"/>
                <path class="cls-1" d="m344.3,329.09c.42,1.01-.47,2-1.39,1.53-.19-.1-.35-.28-.44-.49-.42-1.01.47-2,1.39-1.53.19.1.35.28.44.49Z"/>
                <path class="cls-1" d="m386.1,404.56c.42,1.02-.47,2-1.39,1.53-.19-.1-.35-.28-.44-.49-.42-1.01.47-2,1.39-1.53.19.1.35.28.44.49Z"/>
                <path class="cls-1" d="m424.7,485.41c.42,1.01-.47,2-1.39,1.53-.19-.1-.35-.27-.44-.49-.42-1.02.47-2,1.39-1.53.19.1.35.28.44.49Z"/>
                <path class="cls-1" d="m540.03,443.02c.42,1.01-.47,2-1.39,1.53-.19-.1-.35-.28-.44-.49-.42-1.01.47-2,1.39-1.53.19.1.35.28.44.49Z"/>
                <path class="cls-1" d="m645.05,387.12c.42,1.01-.47,2-1.39,1.53-.19-.1-.35-.28-.44-.49-.42-1.02.47-2,1.39-1.53.19.1.35.28.44.49Z"/>
                <path class="cls-1" d="m722.51,423.48c.42,1.01-.47,2-1.39,1.53-.19-.1-.35-.28-.44-.49-.42-1.01.47-2,1.39-1.53.19.1.35.28.44.49Z"/>
                <path class="cls-1" d="m724.96,411.87c.42,1.01-.47,2-1.39,1.53-.19-.1-.35-.28-.44-.49-.42-1.01.47-2,1.39-1.53.19.1.35.28.44.49Z"/>
                <path class="cls-1" d="m670.38,286.66c.42,1.01-.47,2-1.39,1.53-.19-.1-.35-.28-.44-.49-.42-1.01.47-2,1.39-1.53.19.1.35.27.44.49Z"/>
                <path class="cls-1" d="m695.98,253.14c.42,1.01-.47,2-1.39,1.53-.19-.1-.35-.28-.44-.49-.42-1.01.47-2,1.39-1.53.19.1.35.28.44.49Z"/>
                <path class="cls-1" d="m783.81,502.85c.42,1.01-.47,2-1.39,1.53-.19-.1-.35-.28-.44-.49-.42-1.01.47-2,1.39-1.53.19.1.35.27.44.49Z"/>
                <path class="cls-1" d="m678.3,568.83c.42,1.01-.47,2-1.39,1.53-.19-.1-.35-.28-.44-.49-.42-1.01.47-2,1.39-1.53.19.1.35.28.44.49Z"/>
                <path class="cls-1" d="m698.14,501.18c.42,1.01-.47,2-1.39,1.53-.19-.1-.35-.28-.44-.49-.42-1.02.47-2,1.39-1.53.19.1.35.28.44.49Z"/>
                <path class="cls-1" d="m763.95,537.9c.42,1.01-.47,2-1.39,1.53-.19-.1-.35-.28-.44-.49-.42-1.01.47-2,1.39-1.53.19.1.35.28.44.49Z"/>
                <path class="cls-1" d="m765.86,603.98c.42,1.01-.47,2-1.39,1.53-.19-.1-.35-.28-.44-.49-.42-1.01.47-2,1.39-1.53.19.1.35.28.44.49Z"/>
                <path class="cls-1" d="m734.31,633.64c.42,1.01-.47,2-1.39,1.53-.19-.1-.35-.28-.44-.49-.42-1.01.47-2,1.39-1.53.19.1.35.28.44.49Z"/>
                <path class="cls-1" d="m719.57,677.46c.42,1.01-.47,2-1.39,1.53-.19-.1-.35-.27-.44-.49-.42-1.02.47-2,1.39-1.53.19.1.35.28.44.49Z"/>
                <path class="cls-1" d="m777.97,707.38c.42,1.02-.47,2-1.39,1.53-.19-.1-.35-.28-.44-.49-.42-1.01.47-2,1.39-1.53.19.1.35.28.44.49Z"/>
                <path class="cls-1" d="m738.36,690.57c.42,1.01-.47,2-1.39,1.53-.19-.1-.35-.28-.44-.49-.42-1.01.47-2,1.39-1.53.19.1.35.28.44.49Z"/>
                <path class="cls-1" d="m761.87,703.05c.42,1.01-.47,2-1.39,1.53-.19-.1-.35-.28-.44-.49-.42-1.01.47-2,1.39-1.53.19.1.35.28.44.49Z"/>
                <path class="cls-1" d="m727.62,834c.42,1.01-.47,2-1.39,1.53-.19-.1-.35-.28-.44-.49-.42-1.01.47-2,1.39-1.53.19.1.35.28.44.49Z"/>
                <path class="cls-1" d="m623.08,836.4c.42,1.01-.47,2-1.39,1.53-.19-.1-.35-.28-.44-.49-.42-1.01.47-2,1.39-1.53.19.1.35.28.44.49Z"/>
                <path class="cls-1" d="m119.22,632.29c.42,1.01-.47,2-1.39,1.53-.19-.1-.35-.27-.44-.49-.42-1.01.47-2,1.39-1.53.19.1.35.28.44.49Z"/>
                <path class="cls-1" d="m406.98,727.75c.42,1.02-.47,2-1.39,1.53-.19-.1-.35-.28-.44-.49-.42-1.01.47-2,1.39-1.53.19.1.35.27.44.49Z"/>
                <path class="cls-1" d="m500.03,757.25c.42,1.01-.47,2-1.39,1.53-.19-.1-.35-.28-.44-.49-.42-1.01.47-2,1.39-1.53.19.1.35.27.44.49Z"/>
                <path class="cls-1" d="m551.91,704.83c.42,1.01-.47,2-1.39,1.53-.19-.1-.35-.27-.44-.49-.42-1.01.47-2,1.39-1.53.19.1.35.28.44.49Z"/>
                <path class="cls-1" d="m387.53,804.61c.42,1.01-.47,2-1.39,1.53-.19-.1-.35-.28-.44-.49-.42-1.01.47-2,1.39-1.53.19.1.35.27.44.49Z"/>
                <path class="cls-1" d="m349.71,702.55c.42,1.01-.47,2-1.39,1.53-.19-.1-.35-.28-.44-.49-.42-1.01.47-2,1.39-1.53.19.1.35.28.44.49Z"/>
                <path class="cls-1" d="m518.1,588.44c.42,1.02-.47,2-1.39,1.53-.19-.1-.35-.28-.44-.49-.42-1.01.47-2,1.39-1.53.19.1.35.28.44.49Z"/>
                <path class="cls-1" d="m577.89,681.97c.42,1.01-.47,2-1.39,1.53-.19-.1-.35-.27-.44-.49-.42-1.02.47-2,1.39-1.53.19.1.35.28.44.49Z"/>
                <path class="cls-1" d="m421.62,551.72c.42,1.02-.47,2-1.39,1.53-.19-.1-.35-.28-.44-.49-.42-1.01.47-2,1.39-1.53.19.1.35.27.44.49Z"/>
                <path class="cls-1" d="m400.42,604.2c.42,1.01-.47,2-1.39,1.53-.19-.1-.35-.27-.44-.49-.42-1.01.47-2,1.39-1.53.19.1.35.28.44.49Z"/>
                <path class="cls-1" d="m349.85,576.93c.42,1.02-.47,2-1.39,1.53-.19-.1-.35-.28-.44-.49-.42-1.01.47-2,1.39-1.53.19.1.35.28.44.49Z"/>
                <path class="cls-1" d="m446.68,505.92c.42,1.01-.47,2-1.39,1.53-.19-.1-.35-.28-.44-.49-.42-1.01.47-2,1.39-1.53.19.1.35.28.44.49Z"/>
                <path class="cls-1" d="m528.29,430.82c.42,1.01-.47,2-1.39,1.53-.19-.1-.35-.27-.44-.49-.42-1.01.47-2,1.39-1.53.19.1.35.28.44.49Z"/>
                <path class="cls-1" d="m553.49,335.32c.42,1.02-.47,2-1.39,1.53-.19-.1-.35-.28-.44-.49-.42-1.01.47-2,1.39-1.53.19.1.35.27.44.49Z"/>
                <path class="cls-1" d="m528.37,354.05c.42,1.01-.47,2-1.39,1.53-.19-.1-.35-.28-.44-.49-.42-1.01.47-2,1.39-1.53.19.1.35.28.44.49Z"/>
                <path class="cls-1" d="m473.09,382.23c.42,1.02-.47,2-1.39,1.53-.19-.1-.35-.28-.44-.49-.42-1.01.47-2,1.39-1.53.19.1.35.27.44.49Z"/>
                <path class="cls-1" d="m467.14,409.13c.42,1.02-.47,2-1.39,1.53-.19-.1-.35-.28-.44-.49-.42-1.01.47-2,1.39-1.53.19.1.35.28.44.49Z"/>
                <path class="cls-1" d="m457.61,432.36c.42,1.01-.47,2-1.39,1.53-.19-.1-.35-.28-.44-.49-.42-1.01.47-2,1.39-1.53.19.1.35.28.44.49Z"/>
                <path class="cls-1" d="m458.09,359.84c.42,1.01-.47,2-1.39,1.53-.19-.1-.35-.28-.44-.49-.42-1.01.47-2,1.39-1.53.19.1.35.28.44.49Z"/>
                <path class="cls-1" d="m470.45,324.15c.42,1.01-.47,2-1.39,1.53-.19-.1-.35-.28-.44-.49-.42-1.01.47-2,1.39-1.53.19.1.35.28.44.49Z"/>
                <path class="cls-1" d="m494.26,303.91c.42,1.01-.47,2-1.39,1.53-.19-.1-.35-.28-.44-.49-.42-1.01.47-2,1.39-1.53.19.1.35.28.44.49Z"/>
                <path class="cls-1" d="m512.48,272.05c.42,1.01-.47,2-1.39,1.53-.19-.1-.35-.28-.44-.49-.42-1.01.47-2,1.39-1.53.19.1.35.28.44.49Z"/>
                <path class="cls-1" d="m425.66,239.19c.42,1.01-.47,2-1.39,1.53-.19-.1-.35-.28-.44-.49-.42-1.01.47-2,1.39-1.53.19.1.35.27.44.49Z"/>
                <path class="cls-1" d="m546.76,234.68c.42,1.02-.47,2-1.39,1.53-.19-.1-.35-.28-.44-.49-.42-1.01.47-2,1.39-1.53.19.1.35.28.44.49Z"/>
                <path class="cls-1" d="m564.84,228.41c.42,1.01-.47,2-1.39,1.53-.19-.1-.35-.28-.44-.49-.42-1.01.47-2,1.39-1.53.19.1.35.28.44.49Z"/>
                <path class="cls-1" d="m655.52,257.34c.42,1.01-.47,2-1.39,1.53-.19-.1-.35-.28-.44-.49-.42-1.01.47-2,1.39-1.53.19.1.35.28.44.49Z"/>
                <path class="cls-1" d="m702.36,340.16c.42,1.02-.47,2-1.39,1.53-.19-.1-.35-.28-.44-.49-.42-1.01.47-2,1.39-1.53.19.1.35.28.44.49Z"/>
                <path class="cls-1" d="m716.13,326.58c.42,1.01-.47,2-1.39,1.53-.19-.1-.35-.27-.44-.49-.42-1.01.47-2,1.39-1.53.19.1.35.28.44.49Z"/>
                <path class="cls-1" d="m791.71,261.61c.42,1.01-.47,2-1.39,1.53-.19-.1-.35-.28-.44-.49-.42-1.01.47-2,1.39-1.53.19.1.35.28.44.49Z"/>
                <path class="cls-1" d="m790.83,657.43c.42,1.01-.47,2-1.39,1.53-.19-.1-.35-.27-.44-.49-.42-1.01.47-2,1.39-1.53.19.1.35.28.44.49Z"/>
                <path class="cls-1" d="m768.92,645.31c.42,1.02-.47,2-1.39,1.53-.19-.1-.35-.28-.44-.49-.42-1.01.47-2,1.39-1.53.19.1.35.27.44.49Z"/>
                <path class="cls-1" d="m775.95,632.62c.42,1.01-.47,2-1.39,1.53-.19-.1-.35-.28-.44-.49-.42-1.01.47-2,1.39-1.53.19.1.35.28.44.49Z"/>
                <path class="cls-1" d="m669.91,658.98c.42,1.01-.47,2-1.39,1.53-.19-.1-.35-.28-.44-.49-.42-1.01.47-2,1.39-1.53.19.1.35.28.44.49Z"/>
                <path class="cls-1" d="m661.27,716.28c.42,1.01-.47,2-1.39,1.53-.19-.1-.35-.28-.44-.49-.42-1.01.47-2,1.39-1.53.19.1.35.28.44.49Z"/>
                <path class="cls-1" d="m659.53,754.14c.42,1.02-.47,2-1.39,1.53-.19-.1-.35-.28-.44-.49-.42-1.01.47-2,1.39-1.53.19.1.35.27.44.49Z"/>
                <path class="cls-1" d="m624.88,734.99c.42,1.01-.47,2-1.39,1.53-.19-.1-.35-.28-.44-.49-.42-1.01.47-2,1.39-1.53.19.1.35.28.44.49Z"/>
                <path class="cls-1" d="m575.39,585.85c.42,1.01-.47,2-1.39,1.53-.19-.1-.35-.28-.44-.49-.42-1.01.47-2,1.39-1.53.19.1.35.28.44.49Z"/>
                <path class="cls-1" d="m569.42,558.66c.42,1.02-.47,2-1.39,1.53-.19-.1-.35-.28-.44-.49-.42-1.01.47-2,1.39-1.53.19.1.35.27.44.49Z"/>
              </g>
            </g>
          </g>
        </g>
      </g>
    </g>
  </g>
</svg>